<?xml version="1.0" encoding="utf-8" standalone="no"?>
<!DOCTYPE svg PUBLIC "-//W3C//DTD SVG 1.1//EN"
  "http://www.w3.org/Graphics/SVG/1.1/DTD/svg11.dtd">
<svg xmlns:xlink="http://www.w3.org/1999/xlink" width="408.10125pt" height="314.667469pt" viewBox="0 0 408.10125 314.667469" xmlns="http://www.w3.org/2000/svg" version="1.1">
 <metadata>
  <rdf:RDF xmlns:dc="http://purl.org/dc/elements/1.1/" xmlns:cc="http://creativecommons.org/ns#" xmlns:rdf="http://www.w3.org/1999/02/22-rdf-syntax-ns#">
   <cc:Work>
    <dc:type rdf:resource="http://purl.org/dc/dcmitype/StillImage"/>
    <dc:date>2026-07-13T15:34:38.683583</dc:date>
    <dc:format>image/svg+xml</dc:format>
    <dc:creator>
     <cc:Agent>
      <dc:title>Matplotlib v3.10.3, https://matplotlib.org/</dc:title>
     </cc:Agent>
    </dc:creator>
   </cc:Work>
  </rdf:RDF>
 </metadata>
 <defs>
  <style type="text/css">*{stroke-linejoin: round; stroke-linecap: butt}</style>
 </defs>
 <g id="figure_1">
  <g id="patch_1">
   <path d="M 0 314.667469 
L 408.10125 314.667469 
L 408.10125 0 
L 0 0 
z
" style="fill: #ffffff"/>
  </g>
  <g id="axes_1">
   <g id="patch_2">
    <path d="M 43.78125 277.111219 
L 400.90125 277.111219 
L 400.90125 10.999219 
L 43.78125 10.999219 
z
" style="fill: #ffffff"/>
   </g>
   <g id="matplotlib.axis_1">
    <g id="xtick_1">
     <g id="line2d_1">
      <defs>
       <path id="m03eed36c43" d="M 0 0 
L 0 3.5 
" style="stroke: #000000; stroke-width: 0.8"/>
      </defs>
      <g>
       <use xlink:href="#m03eed36c43" x="60.013977" y="277.111219" style="stroke: #000000; stroke-width: 0.8"/>
      </g>
     </g>
     <g id="text_1">
      <!-- 0 -->
      <g transform="translate(56.832727 291.709656) scale(0.1 -0.1)">
       <defs>
        <path id="DejaVuSans-30" d="M 2034 4250 
Q 1547 4250 1301 3770 
Q 1056 3291 1056 2328 
Q 1056 1369 1301 889 
Q 1547 409 2034 409 
Q 2525 409 2770 889 
Q 3016 1369 3016 2328 
Q 3016 3291 2770 3770 
Q 2525 4250 2034 4250 
z
M 2034 4750 
Q 2819 4750 3233 4129 
Q 3647 3509 3647 2328 
Q 3647 1150 3233 529 
Q 2819 -91 2034 -91 
Q 1250 -91 836 529 
Q 422 1150 422 2328 
Q 422 3509 836 4129 
Q 1250 4750 2034 4750 
z
" transform="scale(0.015625)"/>
       </defs>
       <use xlink:href="#DejaVuSans-30"/>
      </g>
     </g>
    </g>
    <g id="xtick_2">
     <g id="line2d_2">
      <g>
       <use xlink:href="#m03eed36c43" x="114.304035" y="277.111219" style="stroke: #000000; stroke-width: 0.8"/>
      </g>
     </g>
     <g id="text_2">
      <!-- 50 -->
      <g transform="translate(107.941535 291.709656) scale(0.1 -0.1)">
       <defs>
        <path id="DejaVuSans-35" d="M 691 4666 
L 3169 4666 
L 3169 4134 
L 1269 4134 
L 1269 2991 
Q 1406 3038 1543 3061 
Q 1681 3084 1819 3084 
Q 2600 3084 3056 2656 
Q 3513 2228 3513 1497 
Q 3513 744 3044 326 
Q 2575 -91 1722 -91 
Q 1428 -91 1123 -41 
Q 819 9 494 109 
L 494 744 
Q 775 591 1075 516 
Q 1375 441 1709 441 
Q 2250 441 2565 725 
Q 2881 1009 2881 1497 
Q 2881 1984 2565 2268 
Q 2250 2553 1709 2553 
Q 1456 2553 1204 2497 
Q 953 2441 691 2322 
L 691 4666 
z
" transform="scale(0.015625)"/>
       </defs>
       <use xlink:href="#DejaVuSans-35"/>
       <use xlink:href="#DejaVuSans-30" transform="translate(63.623047 0)"/>
      </g>
     </g>
    </g>
    <g id="xtick_3">
     <g id="line2d_3">
      <g>
       <use xlink:href="#m03eed36c43" x="168.594093" y="277.111219" style="stroke: #000000; stroke-width: 0.8"/>
      </g>
     </g>
     <g id="text_3">
      <!-- 100 -->
      <g transform="translate(159.050343 291.709656) scale(0.1 -0.1)">
       <defs>
        <path id="DejaVuSans-31" d="M 794 531 
L 1825 531 
L 1825 4091 
L 703 3866 
L 703 4441 
L 1819 4666 
L 2450 4666 
L 2450 531 
L 3481 531 
L 3481 0 
L 794 0 
L 794 531 
z
" transform="scale(0.015625)"/>
       </defs>
       <use xlink:href="#DejaVuSans-31"/>
       <use xlink:href="#DejaVuSans-30" transform="translate(63.623047 0)"/>
       <use xlink:href="#DejaVuSans-30" transform="translate(127.246094 0)"/>
      </g>
     </g>
    </g>
    <g id="xtick_4">
     <g id="line2d_4">
      <g>
       <use xlink:href="#m03eed36c43" x="222.884151" y="277.111219" style="stroke: #000000; stroke-width: 0.8"/>
      </g>
     </g>
     <g id="text_4">
      <!-- 150 -->
      <g transform="translate(213.340401 291.709656) scale(0.1 -0.1)">
       <use xlink:href="#DejaVuSans-31"/>
       <use xlink:href="#DejaVuSans-35" transform="translate(63.623047 0)"/>
       <use xlink:href="#DejaVuSans-30" transform="translate(127.246094 0)"/>
      </g>
     </g>
    </g>
    <g id="xtick_5">
     <g id="line2d_5">
      <g>
       <use xlink:href="#m03eed36c43" x="277.174208" y="277.111219" style="stroke: #000000; stroke-width: 0.8"/>
      </g>
     </g>
     <g id="text_5">
      <!-- 200 -->
      <g transform="translate(267.630458 291.709656) scale(0.1 -0.1)">
       <defs>
        <path id="DejaVuSans-32" d="M 1228 531 
L 3431 531 
L 3431 0 
L 469 0 
L 469 531 
Q 828 903 1448 1529 
Q 2069 2156 2228 2338 
Q 2531 2678 2651 2914 
Q 2772 3150 2772 3378 
Q 2772 3750 2511 3984 
Q 2250 4219 1831 4219 
Q 1534 4219 1204 4116 
Q 875 4013 500 3803 
L 500 4441 
Q 881 4594 1212 4672 
Q 1544 4750 1819 4750 
Q 2544 4750 2975 4387 
Q 3406 4025 3406 3419 
Q 3406 3131 3298 2873 
Q 3191 2616 2906 2266 
Q 2828 2175 2409 1742 
Q 1991 1309 1228 531 
z
" transform="scale(0.015625)"/>
       </defs>
       <use xlink:href="#DejaVuSans-32"/>
       <use xlink:href="#DejaVuSans-30" transform="translate(63.623047 0)"/>
       <use xlink:href="#DejaVuSans-30" transform="translate(127.246094 0)"/>
      </g>
     </g>
    </g>
    <g id="xtick_6">
     <g id="line2d_6">
      <g>
       <use xlink:href="#m03eed36c43" x="331.464266" y="277.111219" style="stroke: #000000; stroke-width: 0.8"/>
      </g>
     </g>
     <g id="text_6">
      <!-- 250 -->
      <g transform="translate(321.920516 291.709656) scale(0.1 -0.1)">
       <use xlink:href="#DejaVuSans-32"/>
       <use xlink:href="#DejaVuSans-35" transform="translate(63.623047 0)"/>
       <use xlink:href="#DejaVuSans-30" transform="translate(127.246094 0)"/>
      </g>
     </g>
    </g>
    <g id="text_7">
     <!-- Lernzyklus -->
     <g transform="translate(195.788125 305.387781) scale(0.1 -0.1)">
      <defs>
       <path id="DejaVuSans-4c" d="M 628 4666 
L 1259 4666 
L 1259 531 
L 3531 531 
L 3531 0 
L 628 0 
L 628 4666 
z
" transform="scale(0.015625)"/>
       <path id="DejaVuSans-65" d="M 3597 1894 
L 3597 1613 
L 953 1613 
Q 991 1019 1311 708 
Q 1631 397 2203 397 
Q 2534 397 2845 478 
Q 3156 559 3463 722 
L 3463 178 
Q 3153 47 2828 -22 
Q 2503 -91 2169 -91 
Q 1331 -91 842 396 
Q 353 884 353 1716 
Q 353 2575 817 3079 
Q 1281 3584 2069 3584 
Q 2775 3584 3186 3129 
Q 3597 2675 3597 1894 
z
M 3022 2063 
Q 3016 2534 2758 2815 
Q 2500 3097 2075 3097 
Q 1594 3097 1305 2825 
Q 1016 2553 972 2059 
L 3022 2063 
z
" transform="scale(0.015625)"/>
       <path id="DejaVuSans-72" d="M 2631 2963 
Q 2534 3019 2420 3045 
Q 2306 3072 2169 3072 
Q 1681 3072 1420 2755 
Q 1159 2438 1159 1844 
L 1159 0 
L 581 0 
L 581 3500 
L 1159 3500 
L 1159 2956 
Q 1341 3275 1631 3429 
Q 1922 3584 2338 3584 
Q 2397 3584 2469 3576 
Q 2541 3569 2628 3553 
L 2631 2963 
z
" transform="scale(0.015625)"/>
       <path id="DejaVuSans-6e" d="M 3513 2113 
L 3513 0 
L 2938 0 
L 2938 2094 
Q 2938 2591 2744 2837 
Q 2550 3084 2163 3084 
Q 1697 3084 1428 2787 
Q 1159 2491 1159 1978 
L 1159 0 
L 581 0 
L 581 3500 
L 1159 3500 
L 1159 2956 
Q 1366 3272 1645 3428 
Q 1925 3584 2291 3584 
Q 2894 3584 3203 3211 
Q 3513 2838 3513 2113 
z
" transform="scale(0.015625)"/>
       <path id="DejaVuSans-7a" d="M 353 3500 
L 3084 3500 
L 3084 2975 
L 922 459 
L 3084 459 
L 3084 0 
L 275 0 
L 275 525 
L 2438 3041 
L 353 3041 
L 353 3500 
z
" transform="scale(0.015625)"/>
       <path id="DejaVuSans-79" d="M 2059 -325 
Q 1816 -950 1584 -1140 
Q 1353 -1331 966 -1331 
L 506 -1331 
L 506 -850 
L 844 -850 
Q 1081 -850 1212 -737 
Q 1344 -625 1503 -206 
L 1606 56 
L 191 3500 
L 800 3500 
L 1894 763 
L 2988 3500 
L 3597 3500 
L 2059 -325 
z
" transform="scale(0.015625)"/>
       <path id="DejaVuSans-6b" d="M 581 4863 
L 1159 4863 
L 1159 1991 
L 2875 3500 
L 3609 3500 
L 1753 1863 
L 3688 0 
L 2938 0 
L 1159 1709 
L 1159 0 
L 581 0 
L 581 4863 
z
" transform="scale(0.015625)"/>
       <path id="DejaVuSans-6c" d="M 603 4863 
L 1178 4863 
L 1178 0 
L 603 0 
L 603 4863 
z
" transform="scale(0.015625)"/>
       <path id="DejaVuSans-75" d="M 544 1381 
L 544 3500 
L 1119 3500 
L 1119 1403 
Q 1119 906 1312 657 
Q 1506 409 1894 409 
Q 2359 409 2629 706 
Q 2900 1003 2900 1516 
L 2900 3500 
L 3475 3500 
L 3475 0 
L 2900 0 
L 2900 538 
Q 2691 219 2414 64 
Q 2138 -91 1772 -91 
Q 1169 -91 856 284 
Q 544 659 544 1381 
z
M 1991 3584 
L 1991 3584 
z
" transform="scale(0.015625)"/>
       <path id="DejaVuSans-73" d="M 2834 3397 
L 2834 2853 
Q 2591 2978 2328 3040 
Q 2066 3103 1784 3103 
Q 1356 3103 1142 2972 
Q 928 2841 928 2578 
Q 928 2378 1081 2264 
Q 1234 2150 1697 2047 
L 1894 2003 
Q 2506 1872 2764 1633 
Q 3022 1394 3022 966 
Q 3022 478 2636 193 
Q 2250 -91 1575 -91 
Q 1294 -91 989 -36 
Q 684 19 347 128 
L 347 722 
Q 666 556 975 473 
Q 1284 391 1588 391 
Q 1994 391 2212 530 
Q 2431 669 2431 922 
Q 2431 1156 2273 1281 
Q 2116 1406 1581 1522 
L 1381 1569 
Q 847 1681 609 1914 
Q 372 2147 372 2553 
Q 372 3047 722 3315 
Q 1072 3584 1716 3584 
Q 2034 3584 2315 3537 
Q 2597 3491 2834 3397 
z
" transform="scale(0.015625)"/>
      </defs>
      <use xlink:href="#DejaVuSans-4c"/>
      <use xlink:href="#DejaVuSans-65" transform="translate(53.962891 0)"/>
      <use xlink:href="#DejaVuSans-72" transform="translate(115.486328 0)"/>
      <use xlink:href="#DejaVuSans-6e" transform="translate(154.849609 0)"/>
      <use xlink:href="#DejaVuSans-7a" transform="translate(218.228516 0)"/>
      <use xlink:href="#DejaVuSans-79" transform="translate(270.71875 0)"/>
      <use xlink:href="#DejaVuSans-6b" transform="translate(329.898438 0)"/>
      <use xlink:href="#DejaVuSans-6c" transform="translate(387.808594 0)"/>
      <use xlink:href="#DejaVuSans-75" transform="translate(415.591797 0)"/>
      <use xlink:href="#DejaVuSans-73" transform="translate(478.970703 0)"/>
     </g>
    </g>
   </g>
   <g id="matplotlib.axis_2">
    <g id="ytick_1">
     <g id="line2d_7">
      <defs>
       <path id="m98429bbcfb" d="M 0 0 
L -3.5 0 
" style="stroke: #000000; stroke-width: 0.8"/>
      </defs>
      <g>
       <use xlink:href="#m98429bbcfb" x="43.78125" y="277.111219" style="stroke: #000000; stroke-width: 0.8"/>
      </g>
     </g>
     <g id="text_8">
      <!-- 0.0 -->
      <g transform="translate(20.878125 280.910437) scale(0.1 -0.1)">
       <defs>
        <path id="DejaVuSans-2e" d="M 684 794 
L 1344 794 
L 1344 0 
L 684 0 
L 684 794 
z
" transform="scale(0.015625)"/>
       </defs>
       <use xlink:href="#DejaVuSans-30"/>
       <use xlink:href="#DejaVuSans-2e" transform="translate(63.623047 0)"/>
       <use xlink:href="#DejaVuSans-30" transform="translate(95.410156 0)"/>
      </g>
     </g>
    </g>
    <g id="ytick_2">
     <g id="line2d_8">
      <g>
       <use xlink:href="#m98429bbcfb" x="43.78125" y="223.888819" style="stroke: #000000; stroke-width: 0.8"/>
      </g>
     </g>
     <g id="text_9">
      <!-- 0.2 -->
      <g transform="translate(20.878125 227.688037) scale(0.1 -0.1)">
       <use xlink:href="#DejaVuSans-30"/>
       <use xlink:href="#DejaVuSans-2e" transform="translate(63.623047 0)"/>
       <use xlink:href="#DejaVuSans-32" transform="translate(95.410156 0)"/>
      </g>
     </g>
    </g>
    <g id="ytick_3">
     <g id="line2d_9">
      <g>
       <use xlink:href="#m98429bbcfb" x="43.78125" y="170.666419" style="stroke: #000000; stroke-width: 0.8"/>
      </g>
     </g>
     <g id="text_10">
      <!-- 0.4 -->
      <g transform="translate(20.878125 174.465637) scale(0.1 -0.1)">
       <defs>
        <path id="DejaVuSans-34" d="M 2419 4116 
L 825 1625 
L 2419 1625 
L 2419 4116 
z
M 2253 4666 
L 3047 4666 
L 3047 1625 
L 3713 1625 
L 3713 1100 
L 3047 1100 
L 3047 0 
L 2419 0 
L 2419 1100 
L 313 1100 
L 313 1709 
L 2253 4666 
z
" transform="scale(0.015625)"/>
       </defs>
       <use xlink:href="#DejaVuSans-30"/>
       <use xlink:href="#DejaVuSans-2e" transform="translate(63.623047 0)"/>
       <use xlink:href="#DejaVuSans-34" transform="translate(95.410156 0)"/>
      </g>
     </g>
    </g>
    <g id="ytick_4">
     <g id="line2d_10">
      <g>
       <use xlink:href="#m98429bbcfb" x="43.78125" y="117.444019" style="stroke: #000000; stroke-width: 0.8"/>
      </g>
     </g>
     <g id="text_11">
      <!-- 0.6 -->
      <g transform="translate(20.878125 121.243237) scale(0.1 -0.1)">
       <defs>
        <path id="DejaVuSans-36" d="M 2113 2584 
Q 1688 2584 1439 2293 
Q 1191 2003 1191 1497 
Q 1191 994 1439 701 
Q 1688 409 2113 409 
Q 2538 409 2786 701 
Q 3034 994 3034 1497 
Q 3034 2003 2786 2293 
Q 2538 2584 2113 2584 
z
M 3366 4563 
L 3366 3988 
Q 3128 4100 2886 4159 
Q 2644 4219 2406 4219 
Q 1781 4219 1451 3797 
Q 1122 3375 1075 2522 
Q 1259 2794 1537 2939 
Q 1816 3084 2150 3084 
Q 2853 3084 3261 2657 
Q 3669 2231 3669 1497 
Q 3669 778 3244 343 
Q 2819 -91 2113 -91 
Q 1303 -91 875 529 
Q 447 1150 447 2328 
Q 447 3434 972 4092 
Q 1497 4750 2381 4750 
Q 2619 4750 2861 4703 
Q 3103 4656 3366 4563 
z
" transform="scale(0.015625)"/>
       </defs>
       <use xlink:href="#DejaVuSans-30"/>
       <use xlink:href="#DejaVuSans-2e" transform="translate(63.623047 0)"/>
       <use xlink:href="#DejaVuSans-36" transform="translate(95.410156 0)"/>
      </g>
     </g>
    </g>
    <g id="ytick_5">
     <g id="line2d_11">
      <g>
       <use xlink:href="#m98429bbcfb" x="43.78125" y="64.221619" style="stroke: #000000; stroke-width: 0.8"/>
      </g>
     </g>
     <g id="text_12">
      <!-- 0.8 -->
      <g transform="translate(20.878125 68.020837) scale(0.1 -0.1)">
       <defs>
        <path id="DejaVuSans-38" d="M 2034 2216 
Q 1584 2216 1326 1975 
Q 1069 1734 1069 1313 
Q 1069 891 1326 650 
Q 1584 409 2034 409 
Q 2484 409 2743 651 
Q 3003 894 3003 1313 
Q 3003 1734 2745 1975 
Q 2488 2216 2034 2216 
z
M 1403 2484 
Q 997 2584 770 2862 
Q 544 3141 544 3541 
Q 544 4100 942 4425 
Q 1341 4750 2034 4750 
Q 2731 4750 3128 4425 
Q 3525 4100 3525 3541 
Q 3525 3141 3298 2862 
Q 3072 2584 2669 2484 
Q 3125 2378 3379 2068 
Q 3634 1759 3634 1313 
Q 3634 634 3220 271 
Q 2806 -91 2034 -91 
Q 1263 -91 848 271 
Q 434 634 434 1313 
Q 434 1759 690 2068 
Q 947 2378 1403 2484 
z
M 1172 3481 
Q 1172 3119 1398 2916 
Q 1625 2713 2034 2713 
Q 2441 2713 2670 2916 
Q 2900 3119 2900 3481 
Q 2900 3844 2670 4047 
Q 2441 4250 2034 4250 
Q 1625 4250 1398 4047 
Q 1172 3844 1172 3481 
z
" transform="scale(0.015625)"/>
       </defs>
       <use xlink:href="#DejaVuSans-30"/>
       <use xlink:href="#DejaVuSans-2e" transform="translate(63.623047 0)"/>
       <use xlink:href="#DejaVuSans-38" transform="translate(95.410156 0)"/>
      </g>
     </g>
    </g>
    <g id="ytick_6">
     <g id="line2d_12">
      <g>
       <use xlink:href="#m98429bbcfb" x="43.78125" y="10.999219" style="stroke: #000000; stroke-width: 0.8"/>
      </g>
     </g>
     <g id="text_13">
      <!-- 1.0 -->
      <g transform="translate(20.878125 14.798437) scale(0.1 -0.1)">
       <use xlink:href="#DejaVuSans-31"/>
       <use xlink:href="#DejaVuSans-2e" transform="translate(63.623047 0)"/>
       <use xlink:href="#DejaVuSans-30" transform="translate(95.410156 0)"/>
      </g>
     </g>
    </g>
    <g id="text_14">
     <!-- Fehler -->
     <g transform="translate(14.798438 159.422406) rotate(-90) scale(0.1 -0.1)">
      <defs>
       <path id="DejaVuSans-46" d="M 628 4666 
L 3309 4666 
L 3309 4134 
L 1259 4134 
L 1259 2759 
L 3109 2759 
L 3109 2228 
L 1259 2228 
L 1259 0 
L 628 0 
L 628 4666 
z
" transform="scale(0.015625)"/>
       <path id="DejaVuSans-68" d="M 3513 2113 
L 3513 0 
L 2938 0 
L 2938 2094 
Q 2938 2591 2744 2837 
Q 2550 3084 2163 3084 
Q 1697 3084 1428 2787 
Q 1159 2491 1159 1978 
L 1159 0 
L 581 0 
L 581 4863 
L 1159 4863 
L 1159 2956 
Q 1366 3272 1645 3428 
Q 1925 3584 2291 3584 
Q 2894 3584 3203 3211 
Q 3513 2838 3513 2113 
z
" transform="scale(0.015625)"/>
      </defs>
      <use xlink:href="#DejaVuSans-46"/>
      <use xlink:href="#DejaVuSans-65" transform="translate(52.019531 0)"/>
      <use xlink:href="#DejaVuSans-68" transform="translate(113.542969 0)"/>
      <use xlink:href="#DejaVuSans-6c" transform="translate(176.921875 0)"/>
      <use xlink:href="#DejaVuSans-65" transform="translate(204.705078 0)"/>
      <use xlink:href="#DejaVuSans-72" transform="translate(266.228516 0)"/>
     </g>
    </g>
   </g>
   <g id="line2d_13">
    <path d="M 61.098868 -1 
L 61.099778 236.103744 
L 62.18558 238.250647 
L 63.271381 239.398699 
L 65.442983 240.686836 
L 66.528784 241.17139 
L 67.614585 241.386496 
L 68.700387 243.321481 
L 69.786188 245.997572 
L 70.871989 242.004016 
L 71.95779 240.023639 
L 73.043591 245.083955 
L 74.129392 246.858416 
L 76.300995 248.494027 
L 78.472597 249.471814 
L 82.815802 250.915463 
L 86.073205 251.624948 
L 90.41641 252.334872 
L 103.446023 253.78438 
L 129.505251 255.577401 
L 152.307075 256.75559 
L 157.736081 256.978837 
L 160.993485 257.167317 
L 176.194701 257.839742 
L 182.709508 258.083084 
L 193.567519 258.483329 
L 197.910724 258.611343 
L 204.425531 258.833759 
L 208.768736 258.98262 
L 212.026139 259.017759 
L 214.197741 259.140095 
L 233.742162 259.802138 
L 235.913764 259.867149 
L 239.171168 259.98176 
L 242.428571 260.048926 
L 243.514373 260.156483 
L 245.685975 260.162879 
L 256.543986 260.456812 
L 259.80139 260.481047 
L 261.972992 260.640518 
L 268.487799 260.797372 
L 269.5736 260.913661 
L 270.659401 260.871774 
L 271.745203 260.973094 
L 272.831004 260.910594 
L 276.088407 261.091467 
L 277.174208 261.094637 
L 278.26001 260.948742 
L 280.431612 261.134174 
L 281.517413 261.108763 
L 282.603214 261.225597 
L 284.774816 261.13386 
L 286.946419 261.266623 
L 295.632828 261.490684 
L 296.718629 261.253847 
L 302.147635 261.512386 
L 304.319237 261.31278 
L 305.405038 261.660937 
L 306.49084 261.442446 
L 308.662442 261.553555 
L 309.748243 261.680578 
L 310.834044 261.605029 
L 314.091448 261.820847 
L 316.26305 261.545398 
L 318.434652 261.798367 
L 319.520453 261.826311 
L 320.606255 261.725255 
L 321.692056 261.852883 
L 323.863658 261.846176 
L 326.03526 262.094345 
L 328.206863 262.086439 
L 331.464266 262.16366 
L 332.550067 261.945741 
L 333.635868 262.21207 
L 334.72167 262.159204 
L 336.893272 262.325056 
L 337.979073 262.031825 
L 339.064874 262.349551 
L 341.236477 262.030258 
L 342.322278 262.22569 
L 343.408079 262.307749 
L 344.49388 262.146501 
L 345.579681 261.824591 
L 346.665482 262.348888 
L 348.837085 262.252724 
L 349.922886 262.403703 
L 353.180289 262.32496 
L 354.26609 262.376103 
L 355.351892 262.636604 
L 356.437693 262.778608 
L 357.523494 262.057047 
L 358.609295 262.670705 
L 360.780897 262.74713 
L 361.866698 262.735218 
L 362.9525 262.381576 
L 364.038301 262.452353 
L 366.209903 262.783562 
L 367.295704 262.471545 
L 368.381505 262.482962 
L 369.467307 262.802952 
L 370.553108 262.465856 
L 373.810511 262.714506 
L 374.896312 262.78751 
L 377.067915 262.532534 
L 378.153716 262.55204 
L 379.239517 263.015222 
L 380.325318 262.22897 
L 381.411119 263.030233 
L 382.49692 262.778723 
L 383.582722 262.255637 
L 384.668523 262.808978 
L 384.668523 262.808978 
" clip-path="url(#p7034f0dfad)" style="fill: none; stroke: #000000; stroke-width: 1.5; stroke-linecap: square"/>
   </g>
   <g id="line2d_14">
    <path d="M 60.013977 236.014348 
L 61.099778 238.520991 
L 62.18558 239.553801 
L 63.271381 240.211281 
L 64.357182 240.719289 
L 66.528784 241.324981 
L 67.614585 241.220061 
L 68.700387 245.412524 
L 69.786188 246.424427 
L 70.871989 233.755285 
L 71.95779 243.594299 
L 73.043591 244.732495 
L 75.215193 246.339423 
L 76.300995 246.916431 
L 79.558398 248.031127 
L 80.644199 248.087397 
L 83.901603 248.77774 
L 90.41641 249.585947 
L 93.673813 249.90926 
L 95.845415 249.999699 
L 99.102819 250.194718 
L 102.360222 250.441902 
L 111.046632 250.805596 
L 120.818842 250.92426 
L 124.076245 250.831318 
L 125.162047 250.926562 
L 127.333649 250.867835 
L 138.19166 250.804773 
L 140.363263 250.648288 
L 146.87807 250.545739 
L 147.963871 250.429191 
L 149.049672 250.542343 
L 151.221274 250.468242 
L 152.307075 250.328845 
L 154.478678 250.462998 
L 156.65028 249.987406 
L 157.736081 250.138917 
L 159.907684 249.967282 
L 160.993485 250.234756 
L 163.165087 250.152489 
L 165.336689 249.904597 
L 166.42249 250.095841 
L 167.508292 249.876683 
L 168.594093 249.972877 
L 172.937297 249.836165 
L 174.023099 249.923036 
L 175.1089 249.744872 
L 176.194701 249.803121 
L 180.537906 249.386897 
L 182.709508 249.479978 
L 183.795309 249.341537 
L 184.88111 249.359258 
L 185.966911 249.583068 
L 187.052712 249.545042 
L 188.138514 248.870272 
L 189.224315 248.569135 
L 190.310116 248.910986 
L 191.395917 249.105026 
L 192.481718 248.660682 
L 193.567519 249.035073 
L 195.739122 248.914859 
L 196.824923 249.235329 
L 197.910724 248.786892 
L 198.996525 248.529364 
L 200.082326 248.881898 
L 201.168127 248.95273 
L 202.253929 248.904927 
L 203.33973 249.040258 
L 204.425531 248.88542 
L 205.511332 248.50816 
L 206.597133 248.774914 
L 208.768736 248.104409 
L 209.854537 248.87077 
L 210.940338 248.102614 
L 213.11194 248.381924 
L 214.197741 248.150689 
L 215.283542 248.374873 
L 216.369344 247.862166 
L 217.455145 248.431923 
L 219.626747 248.392656 
L 220.712548 248.048562 
L 221.798349 248.359841 
L 222.884151 248.507345 
L 223.969952 248.270403 
L 226.141554 248.153514 
L 227.227355 247.591687 
L 228.313156 248.032219 
L 229.398958 248.115726 
L 230.484759 247.447562 
L 231.57056 248.007802 
L 232.656361 247.567332 
L 233.742162 247.708309 
L 234.827963 247.672436 
L 236.999566 247.105175 
L 238.085367 247.188397 
L 239.171168 247.063289 
L 240.256969 247.417978 
L 242.428571 247.378168 
L 243.514373 247.568906 
L 244.600174 246.537704 
L 246.771776 247.271053 
L 247.857577 246.581325 
L 248.943378 246.576465 
L 250.029179 247.43282 
L 251.114981 246.239305 
L 252.200782 246.462108 
L 253.286583 246.143819 
L 254.372384 246.336883 
L 255.458185 246.207011 
L 256.543986 246.995473 
L 257.629788 246.668204 
L 258.715589 245.411842 
L 260.887191 245.863762 
L 261.972992 245.891044 
L 263.058793 246.330247 
L 265.230396 245.787484 
L 266.316197 245.013896 
L 267.401998 246.010531 
L 269.5736 244.469383 
L 270.659401 243.966886 
L 271.745203 244.737099 
L 272.831004 245.675916 
L 275.002606 244.584414 
L 276.088407 244.862514 
L 277.174208 244.776777 
L 278.26001 245.010692 
L 279.345811 244.339116 
L 280.431612 245.067181 
L 281.517413 244.282996 
L 282.603214 244.490928 
L 286.946419 243.841084 
L 288.03222 243.589941 
L 289.118021 244.433048 
L 290.203822 243.742648 
L 291.289623 244.28666 
L 292.375425 243.953354 
L 293.461226 243.486675 
L 294.547027 244.603624 
L 295.632828 243.108088 
L 296.718629 243.650524 
L 297.80443 243.332628 
L 298.890231 243.861891 
L 301.061834 243.99004 
L 302.147635 243.894843 
L 303.233436 242.830298 
L 304.319237 242.641934 
L 305.405038 243.864666 
L 306.49084 242.588251 
L 307.576641 243.11042 
L 308.662442 243.207738 
L 309.748243 243.863564 
L 310.834044 242.966536 
L 311.919845 242.880491 
L 313.005646 241.636291 
L 314.091448 240.741912 
L 316.26305 242.012018 
L 317.348851 241.978059 
L 318.434652 241.046036 
L 319.520453 242.376952 
L 320.606255 241.484349 
L 321.692056 240.853267 
L 322.777857 239.988486 
L 323.863658 241.884694 
L 324.949459 242.963629 
L 326.03526 240.300006 
L 327.121061 240.925703 
L 328.206863 241.007632 
L 329.292664 240.03563 
L 330.378465 241.889405 
L 331.464266 239.292895 
L 332.550067 241.919775 
L 333.635868 242.234856 
L 334.72167 240.662501 
L 336.893272 243.799912 
L 337.979073 240.439821 
L 339.064874 241.805156 
L 340.150675 240.849096 
L 341.236477 241.280144 
L 342.322278 240.684418 
L 343.408079 237.744463 
L 344.49388 241.11873 
L 345.579681 242.923282 
L 346.665482 242.06013 
L 347.751283 241.045029 
L 348.837085 240.920516 
L 349.922886 242.488419 
L 351.008687 237.2669 
L 352.094488 240.216297 
L 353.180289 240.045207 
L 354.26609 241.622527 
L 355.351892 241.578063 
L 356.437693 240.259777 
L 357.523494 240.184756 
L 358.609295 239.431905 
L 360.780897 238.793487 
L 361.866698 236.852391 
L 362.9525 238.998795 
L 364.038301 238.178461 
L 365.124102 238.53318 
L 366.209903 238.321679 
L 367.295704 238.591142 
L 368.381505 236.903228 
L 369.467307 236.511064 
L 370.553108 237.979792 
L 371.638909 237.828993 
L 372.72471 237.84715 
L 373.810511 239.96053 
L 374.896312 239.95867 
L 375.982113 237.512738 
L 377.067915 238.41799 
L 379.239517 239.727556 
L 380.325318 239.735911 
L 381.411119 235.626594 
L 382.49692 238.566022 
L 383.582722 240.782208 
L 384.668523 240.328576 
L 384.668523 240.328576 
" clip-path="url(#p7034f0dfad)" style="fill: none; stroke-dasharray: 1.5,2.475; stroke-dashoffset: 0; stroke: #ff0000; stroke-width: 1.5"/>
   </g>
   <g id="patch_3">
    <path d="M 43.78125 277.111219 
L 43.78125 10.999219 
" style="fill: none; stroke: #000000; stroke-width: 0.8; stroke-linejoin: miter; stroke-linecap: square"/>
   </g>
   <g id="patch_4">
    <path d="M 400.90125 277.111219 
L 400.90125 10.999219 
" style="fill: none; stroke: #000000; stroke-width: 0.8; stroke-linejoin: miter; stroke-linecap: square"/>
   </g>
   <g id="patch_5">
    <path d="M 43.78125 277.111219 
L 400.90125 277.111219 
" style="fill: none; stroke: #000000; stroke-width: 0.8; stroke-linejoin: miter; stroke-linecap: square"/>
   </g>
   <g id="patch_6">
    <path d="M 43.78125 10.999219 
L 400.90125 10.999219 
" style="fill: none; stroke: #000000; stroke-width: 0.8; stroke-linejoin: miter; stroke-linecap: square"/>
   </g>
   <g id="legend_1">
    <g id="patch_7">
     <path d="M 271.640312 48.355469 
L 393.90125 48.355469 
Q 395.90125 48.355469 395.90125 46.355469 
L 395.90125 17.999219 
Q 395.90125 15.999219 393.90125 15.999219 
L 271.640312 15.999219 
Q 269.640312 15.999219 269.640312 17.999219 
L 269.640312 46.355469 
Q 269.640312 48.355469 271.640312 48.355469 
z
" style="fill: #ffffff; opacity: 0.8; stroke: #cccccc; stroke-linejoin: miter"/>
    </g>
    <g id="line2d_15">
     <path d="M 273.640312 24.097656 
L 283.640312 24.097656 
L 293.640312 24.097656 
" style="fill: none; stroke: #000000; stroke-width: 1.5; stroke-linecap: square"/>
    </g>
    <g id="text_15">
     <!-- Trainingsdaten -->
     <g transform="translate(301.640312 27.597656) scale(0.1 -0.1)">
      <defs>
       <path id="DejaVuSans-54" d="M -19 4666 
L 3928 4666 
L 3928 4134 
L 2272 4134 
L 2272 0 
L 1638 0 
L 1638 4134 
L -19 4134 
L -19 4666 
z
" transform="scale(0.015625)"/>
       <path id="DejaVuSans-61" d="M 2194 1759 
Q 1497 1759 1228 1600 
Q 959 1441 959 1056 
Q 959 750 1161 570 
Q 1363 391 1709 391 
Q 2188 391 2477 730 
Q 2766 1069 2766 1631 
L 2766 1759 
L 2194 1759 
z
M 3341 1997 
L 3341 0 
L 2766 0 
L 2766 531 
Q 2569 213 2275 61 
Q 1981 -91 1556 -91 
Q 1019 -91 701 211 
Q 384 513 384 1019 
Q 384 1609 779 1909 
Q 1175 2209 1959 2209 
L 2766 2209 
L 2766 2266 
Q 2766 2663 2505 2880 
Q 2244 3097 1772 3097 
Q 1472 3097 1187 3025 
Q 903 2953 641 2809 
L 641 3341 
Q 956 3463 1253 3523 
Q 1550 3584 1831 3584 
Q 2591 3584 2966 3190 
Q 3341 2797 3341 1997 
z
" transform="scale(0.015625)"/>
       <path id="DejaVuSans-69" d="M 603 3500 
L 1178 3500 
L 1178 0 
L 603 0 
L 603 3500 
z
M 603 4863 
L 1178 4863 
L 1178 4134 
L 603 4134 
L 603 4863 
z
" transform="scale(0.015625)"/>
       <path id="DejaVuSans-67" d="M 2906 1791 
Q 2906 2416 2648 2759 
Q 2391 3103 1925 3103 
Q 1463 3103 1205 2759 
Q 947 2416 947 1791 
Q 947 1169 1205 825 
Q 1463 481 1925 481 
Q 2391 481 2648 825 
Q 2906 1169 2906 1791 
z
M 3481 434 
Q 3481 -459 3084 -895 
Q 2688 -1331 1869 -1331 
Q 1566 -1331 1297 -1286 
Q 1028 -1241 775 -1147 
L 775 -588 
Q 1028 -725 1275 -790 
Q 1522 -856 1778 -856 
Q 2344 -856 2625 -561 
Q 2906 -266 2906 331 
L 2906 616 
Q 2728 306 2450 153 
Q 2172 0 1784 0 
Q 1141 0 747 490 
Q 353 981 353 1791 
Q 353 2603 747 3093 
Q 1141 3584 1784 3584 
Q 2172 3584 2450 3431 
Q 2728 3278 2906 2969 
L 2906 3500 
L 3481 3500 
L 3481 434 
z
" transform="scale(0.015625)"/>
       <path id="DejaVuSans-64" d="M 2906 2969 
L 2906 4863 
L 3481 4863 
L 3481 0 
L 2906 0 
L 2906 525 
Q 2725 213 2448 61 
Q 2172 -91 1784 -91 
Q 1150 -91 751 415 
Q 353 922 353 1747 
Q 353 2572 751 3078 
Q 1150 3584 1784 3584 
Q 2172 3584 2448 3432 
Q 2725 3281 2906 2969 
z
M 947 1747 
Q 947 1113 1208 752 
Q 1469 391 1925 391 
Q 2381 391 2643 752 
Q 2906 1113 2906 1747 
Q 2906 2381 2643 2742 
Q 2381 3103 1925 3103 
Q 1469 3103 1208 2742 
Q 947 2381 947 1747 
z
" transform="scale(0.015625)"/>
       <path id="DejaVuSans-74" d="M 1172 4494 
L 1172 3500 
L 2356 3500 
L 2356 3053 
L 1172 3053 
L 1172 1153 
Q 1172 725 1289 603 
Q 1406 481 1766 481 
L 2356 481 
L 2356 0 
L 1766 0 
Q 1100 0 847 248 
Q 594 497 594 1153 
L 594 3053 
L 172 3053 
L 172 3500 
L 594 3500 
L 594 4494 
L 1172 4494 
z
" transform="scale(0.015625)"/>
      </defs>
      <use xlink:href="#DejaVuSans-54"/>
      <use xlink:href="#DejaVuSans-72" transform="translate(46.333984 0)"/>
      <use xlink:href="#DejaVuSans-61" transform="translate(87.447266 0)"/>
      <use xlink:href="#DejaVuSans-69" transform="translate(148.726562 0)"/>
      <use xlink:href="#DejaVuSans-6e" transform="translate(176.509766 0)"/>
      <use xlink:href="#DejaVuSans-69" transform="translate(239.888672 0)"/>
      <use xlink:href="#DejaVuSans-6e" transform="translate(267.671875 0)"/>
      <use xlink:href="#DejaVuSans-67" transform="translate(331.050781 0)"/>
      <use xlink:href="#DejaVuSans-73" transform="translate(394.527344 0)"/>
      <use xlink:href="#DejaVuSans-64" transform="translate(446.626953 0)"/>
      <use xlink:href="#DejaVuSans-61" transform="translate(510.103516 0)"/>
      <use xlink:href="#DejaVuSans-74" transform="translate(571.382812 0)"/>
      <use xlink:href="#DejaVuSans-65" transform="translate(610.591797 0)"/>
      <use xlink:href="#DejaVuSans-6e" transform="translate(672.115234 0)"/>
     </g>
    </g>
    <g id="line2d_16">
     <path d="M 273.640312 38.775781 
L 283.640312 38.775781 
L 293.640312 38.775781 
" style="fill: none; stroke-dasharray: 1.5,2.475; stroke-dashoffset: 0; stroke: #ff0000; stroke-width: 1.5"/>
    </g>
    <g id="text_16">
     <!-- Validierungsdaten -->
     <g transform="translate(301.640312 42.275781) scale(0.1 -0.1)">
      <defs>
       <path id="DejaVuSans-56" d="M 1831 0 
L 50 4666 
L 709 4666 
L 2188 738 
L 3669 4666 
L 4325 4666 
L 2547 0 
L 1831 0 
z
" transform="scale(0.015625)"/>
      </defs>
      <use xlink:href="#DejaVuSans-56"/>
      <use xlink:href="#DejaVuSans-61" transform="translate(60.658203 0)"/>
      <use xlink:href="#DejaVuSans-6c" transform="translate(121.9375 0)"/>
      <use xlink:href="#DejaVuSans-69" transform="translate(149.720703 0)"/>
      <use xlink:href="#DejaVuSans-64" transform="translate(177.503906 0)"/>
      <use xlink:href="#DejaVuSans-69" transform="translate(240.980469 0)"/>
      <use xlink:href="#DejaVuSans-65" transform="translate(268.763672 0)"/>
      <use xlink:href="#DejaVuSans-72" transform="translate(330.287109 0)"/>
      <use xlink:href="#DejaVuSans-75" transform="translate(371.400391 0)"/>
      <use xlink:href="#DejaVuSans-6e" transform="translate(434.779297 0)"/>
      <use xlink:href="#DejaVuSans-67" transform="translate(498.158203 0)"/>
      <use xlink:href="#DejaVuSans-73" transform="translate(561.634766 0)"/>
      <use xlink:href="#DejaVuSans-64" transform="translate(613.734375 0)"/>
      <use xlink:href="#DejaVuSans-61" transform="translate(677.210938 0)"/>
      <use xlink:href="#DejaVuSans-74" transform="translate(738.490234 0)"/>
      <use xlink:href="#DejaVuSans-65" transform="translate(777.699219 0)"/>
      <use xlink:href="#DejaVuSans-6e" transform="translate(839.222656 0)"/>
     </g>
    </g>
   </g>
  </g>
 </g>
 <defs>
  <clipPath id="p7034f0dfad">
   <rect x="43.78125" y="10.999219" width="357.12" height="266.112"/>
  </clipPath>
 </defs>
</svg>
