<?xml version="1.0" encoding="UTF-8" standalone="no"?>
<!DOCTYPE svg PUBLIC "-//W3C//DTD SVG 1.1//EN"
 "http://www.w3.org/Graphics/SVG/1.1/DTD/svg11.dtd">
<!-- Generated by graphviz version 2.43.0 (0)
 -->
<!-- Title: G Pages: 1 -->
<svg width="1233pt" height="589pt"
 viewBox="0.00 0.00 444.00 212.00" xmlns="http://www.w3.org/2000/svg" xmlns:xlink="http://www.w3.org/1999/xlink">
<g id="graph0" class="graph" transform="scale(2.78 2.78) rotate(0) translate(4 208)">
<title>G</title>
<polygon fill="white" stroke="transparent" points="-4,4 -4,-208 440,-208 440,4 -4,4"/>
<!-- 138014215414560 -->
<g id="node1" class="node">
<title>138014215414560</title>
<polygon fill="none" stroke="black" points="0,-120.5 0,-203.5 436,-203.5 436,-120.5 0,-120.5"/>
<polygon fill="black" stroke="transparent" points="0,-120.5 0,-203.5 436,-203.5 436,-120.5 0,-120.5"/>
<polygon fill="black" stroke="transparent" points="2,-161 2,-201 434,-201 434,-161 2,-161"/>
<polygon fill="none" stroke="black" points="2,-161 2,-201 434,-201 434,-161 2,-161"/>
<text text-anchor="start" x="151.5" y="-178.2" font-family="Helvetica,sans-Serif" font-weight="bold" font-size="16.00" fill="white">dense1</text>
<text text-anchor="start" x="216.5" y="-178.2" font-family="Helvetica,sans-Serif" font-size="16.00" fill="white"> (Dense)</text>
<polygon fill="white" stroke="transparent" points="2,-122 2,-159 211,-159 211,-122 2,-122"/>
<polygon fill="none" stroke="black" points="2,-122 2,-159 211,-159 211,-122 2,-122"/>
<text text-anchor="start" x="13" y="-137.8" font-family="Helvetica,sans-Serif" font-size="14.00">Input shape: </text>
<text text-anchor="start" x="106" y="-137.8" font-family="Helvetica,sans-Serif" font-weight="bold" font-size="14.00">(None, 784)</text>
<polygon fill="white" stroke="transparent" points="213,-122 213,-159 434,-159 434,-122 213,-122"/>
<polygon fill="none" stroke="black" points="213,-122 213,-159 434,-159 434,-122 213,-122"/>
<text text-anchor="start" x="224" y="-137.8" font-family="Helvetica,sans-Serif" font-size="14.00">Output shape: </text>
<text text-anchor="start" x="329" y="-137.8" font-family="Helvetica,sans-Serif" font-weight="bold" font-size="14.00">(None, 100)</text>
</g>
<!-- 138014215420128 -->
<g id="node2" class="node">
<title>138014215420128</title>
<polygon fill="none" stroke="black" points="9.5,-0.5 9.5,-83.5 426.5,-83.5 426.5,-0.5 9.5,-0.5"/>
<polygon fill="black" stroke="transparent" points="9.5,-0.5 9.5,-83.5 426.5,-83.5 426.5,-0.5 9.5,-0.5"/>
<polygon fill="black" stroke="transparent" points="12,-41 12,-81 425,-81 425,-41 12,-41"/>
<polygon fill="none" stroke="black" points="12,-41 12,-81 425,-81 425,-41 12,-41"/>
<text text-anchor="start" x="152" y="-58.2" font-family="Helvetica,sans-Serif" font-weight="bold" font-size="16.00" fill="white">dense2</text>
<text text-anchor="start" x="217" y="-58.2" font-family="Helvetica,sans-Serif" font-size="16.00" fill="white"> (Dense)</text>
<polygon fill="white" stroke="transparent" points="12,-2 12,-39 221,-39 221,-2 12,-2"/>
<polygon fill="none" stroke="black" points="12,-2 12,-39 221,-39 221,-2 12,-2"/>
<text text-anchor="start" x="23" y="-17.8" font-family="Helvetica,sans-Serif" font-size="14.00">Input shape: </text>
<text text-anchor="start" x="116" y="-17.8" font-family="Helvetica,sans-Serif" font-weight="bold" font-size="14.00">(None, 100)</text>
<polygon fill="white" stroke="transparent" points="223,-2 223,-39 425,-39 425,-2 223,-2"/>
<polygon fill="none" stroke="black" points="223,-2 223,-39 425,-39 425,-2 223,-2"/>
<text text-anchor="start" x="234" y="-17.8" font-family="Helvetica,sans-Serif" font-size="14.00">Output shape: </text>
<text text-anchor="start" x="339" y="-17.8" font-family="Helvetica,sans-Serif" font-weight="bold" font-size="14.00">(None, 1)</text>
</g>
<!-- 138014215414560&#45;&gt;138014215420128 -->
<g id="edge1" class="edge">
<title>138014215414560&#45;&gt;138014215420128</title>
<path fill="none" stroke="black" stroke-width="2" d="M218,-120.37C218,-120.37 218,-93.56 218,-93.56"/>
<polygon fill="black" stroke="black" stroke-width="2" points="221.5,-93.56 218,-83.56 214.5,-93.56 221.5,-93.56"/>
</g>
</g>
</svg>
