<svg width="2189" height="967" xmlns="http://www.w3.org/2000/svg" xmlns:xlink="http://www.w3.org/1999/xlink" xml:space="preserve" overflow="hidden"><g transform="translate(5 -51)"><rect x="149.5" y="459.5" width="52.9999" height="168" stroke="#56595F" stroke-width="6.875" stroke-linejoin="round" stroke-miterlimit="10" fill="#DCDFE3"/><rect x="22.4998" y="459.5" width="231" height="168" stroke="#414752" stroke-width="6.875" stroke-linejoin="round" stroke-miterlimit="10" fill="none"/><rect x="202.5" y="519.5" width="207" height="49.0002" stroke="#56595F" stroke-width="6.875" stroke-linejoin="round" stroke-miterlimit="10" fill="#DCDFE3"/><rect x="572.5" y="292.5" width="163" height="502" stroke="#56595F" stroke-width="6.875" stroke-linejoin="round" stroke-miterlimit="10" fill="#777C84"/><rect x="1814.5" y="459.5" width="52.9999" height="168" stroke="#56595F" stroke-width="6.875" stroke-linejoin="round" stroke-miterlimit="10" fill="#DCDFE3"/><rect x="1765.5" y="459.5" width="287" height="168" stroke="#414752" stroke-width="6.875" stroke-linejoin="round" stroke-miterlimit="10" fill="none"/><path d="M1593.5 320.5 1500.5 553.5 1407.5 320.5Z" stroke="#BB6126" stroke-width="6.875" stroke-linejoin="round" stroke-miterlimit="10" fill="#FE8637" fill-rule="evenodd"/><path d="M829.995 475.5 829.995 475.5 1692.5 475.5 1692.5 613.5 829.995 613.5 829.995 613.5 723.5 544.5Z" stroke="#BB6126" stroke-width="6.875" stroke-miterlimit="8" fill="#FE8637" fill-rule="evenodd"/><rect x="1475.5" y="378.5" width="49.0001" height="175" stroke="#FE8637" stroke-width="6.875" stroke-linejoin="round" stroke-miterlimit="10" fill="#FE8637"/><rect x="409.5" y="292.5" width="163" height="502" stroke="#56595F" stroke-width="6.875" stroke-linejoin="round" stroke-miterlimit="10" fill="#DCDFE3"/><rect x="427.5" y="468.5" width="163" height="138" stroke="#DCDFE3" stroke-width="6.875" stroke-linejoin="round" stroke-miterlimit="10" fill="#DCDFE3"/><path d="M1814.5 582.5 862.226 582.5 862.226 582.5 804.5 543.5 862.226 504.5 862.226 504.5 1814.5 504.5Z" stroke="#56595F" stroke-width="6.875" stroke-miterlimit="8" fill="#E4E5E6" fill-rule="evenodd"/><path d="M0 0 1377.92 0.02021" stroke="#000000" stroke-width="3.60892" stroke-linejoin="round" stroke-miterlimit="10" stroke-dasharray="14.4357 10.8268" fill="none" fill-rule="evenodd" transform="matrix(1 0 0 -1 804 543.02)"/><path d="M2142.25 587.5 2115.89 562.25 2128.51 562.25C2124.51 517.657 2110.55 486.5 2094.56 486.5L2119.81 486.5C2135.8 486.5 2149.76 517.657 2153.76 562.25L2166.39 562.25Z" fill="#777C84" fill-rule="evenodd"/><path d="M2107.19 493.274C2093.67 508.307 2084.75 545.752 2084.75 587.5L2059.5 587.5C2059.5 531.719 2075.2 486.5 2094.56 486.5 2098.88 486.5 2103.16 488.797 2107.19 493.275Z" fill="#60646A" fill-rule="evenodd"/><path d="M2107.19 493.274C2093.67 508.307 2084.75 545.752 2084.75 587.5L2059.5 587.5C2059.5 531.719 2075.2 486.5 2094.56 486.5L2119.81 486.5C2135.8 486.5 2149.76 517.657 2153.76 562.25L2166.39 562.25 2142.25 587.5 2115.89 562.25 2128.51 562.25C2124.51 517.657 2110.55 486.5 2094.56 486.5" stroke="#56595F" stroke-width="6.875" stroke-linejoin="round" stroke-miterlimit="10" fill="none" fill-rule="evenodd"/><path d="M0 0 25.4595 78.135" stroke="#595D63" stroke-width="3.60892" stroke-linejoin="round" stroke-miterlimit="10" fill="none" fill-rule="evenodd" transform="matrix(-1 0 0 1 945.459 505)"/><path d="M0 0 25.4595 78.135" stroke="#595D63" stroke-width="3.60892" stroke-linejoin="round" stroke-miterlimit="10" fill="none" fill-rule="evenodd" transform="matrix(-1 0 0 1 990.459 505)"/><path d="M0 0 25.4595 78.135" stroke="#595D63" stroke-width="3.60892" stroke-linejoin="round" stroke-miterlimit="10" fill="none" fill-rule="evenodd" transform="matrix(-1 0 0 1 1035.46 505)"/><path d="M0 0 25.4595 78.135" stroke="#595D63" stroke-width="3.60892" stroke-linejoin="round" stroke-miterlimit="10" fill="none" fill-rule="evenodd" transform="matrix(-1 0 0 1 1081.46 505)"/><path d="M0 0 25.4595 78.135" stroke="#595D63" stroke-width="3.60892" stroke-linejoin="round" stroke-miterlimit="10" fill="none" fill-rule="evenodd" transform="matrix(-1 0 0 1 1126.46 505)"/><path d="M0 0 25.4595 78.135" stroke="#595D63" stroke-width="3.60892" stroke-linejoin="round" stroke-miterlimit="10" fill="none" fill-rule="evenodd" transform="matrix(-1 0 0 1 1172.46 505)"/><path d="M0 0 25.4595 78.135" stroke="#595D63" stroke-width="3.60892" stroke-linejoin="round" stroke-miterlimit="10" fill="none" fill-rule="evenodd" transform="matrix(-1 0 0 1 1217.46 505)"/><path d="M0 0 25.4595 78.135" stroke="#595D63" stroke-width="3.60892" stroke-linejoin="round" stroke-miterlimit="10" fill="none" fill-rule="evenodd" transform="matrix(-1 0 0 1 1263.46 505)"/><path d="M0 0 25.4595 78.135" stroke="#595D63" stroke-width="3.60892" stroke-linejoin="round" stroke-miterlimit="10" fill="none" fill-rule="evenodd" transform="matrix(-1 0 0 1 1308.46 505)"/><path d="M0 0 25.4595 78.135" stroke="#595D63" stroke-width="3.60892" stroke-linejoin="round" stroke-miterlimit="10" fill="none" fill-rule="evenodd" transform="matrix(-1 0 0 1 1353.46 505)"/><path d="M0 0 25.4595 78.135" stroke="#595D63" stroke-width="3.60892" stroke-linejoin="round" stroke-miterlimit="10" fill="none" fill-rule="evenodd" transform="matrix(-1 0 0 1 1399.46 505)"/><path d="M0 0 25.4595 78.135" stroke="#595D63" stroke-width="3.60892" stroke-linejoin="round" stroke-miterlimit="10" fill="none" fill-rule="evenodd" transform="matrix(-1 0 0 1 1444.46 505)"/><path d="M0 0 25.4595 78.135" stroke="#595D63" stroke-width="3.60892" stroke-linejoin="round" stroke-miterlimit="10" fill="none" fill-rule="evenodd" transform="matrix(-1 0 0 1 1490.46 505)"/><path d="M0 0 25.4595 78.135" stroke="#595D63" stroke-width="3.60892" stroke-linejoin="round" stroke-miterlimit="10" fill="none" fill-rule="evenodd" transform="matrix(-1 0 0 1 1535.46 505)"/><path d="M0 0 25.4595 78.135" stroke="#595D63" stroke-width="3.60892" stroke-linejoin="round" stroke-miterlimit="10" fill="none" fill-rule="evenodd" transform="matrix(-1 0 0 1 1581.46 505)"/><path d="M0 0 25.4595 78.135" stroke="#595D63" stroke-width="3.60892" stroke-linejoin="round" stroke-miterlimit="10" fill="none" fill-rule="evenodd" transform="matrix(-1 0 0 1 1626.46 505)"/><path d="M0 0 25.4595 78.135" stroke="#595D63" stroke-width="3.60892" stroke-linejoin="round" stroke-miterlimit="10" fill="none" fill-rule="evenodd" transform="matrix(-1 0 0 1 1671.46 505)"/><path d="M734.651 533.188 599.695 534.047 601.393 454.984 580.173 455.844 581.022 433.5 562.349 435.219 562.349 484.203 581.871 484.203 581.871 604.516 561.5 604.516 561.5 651.781 580.173 653.5 581.022 629.438 600.544 630.297 601.393 553.812 735.5 554.672C735.217 547.51 734.934 540.349 734.651 533.188Z" stroke="#56595F" stroke-width="6.875" stroke-linejoin="round" stroke-miterlimit="10" fill="#FFFFFF" fill-rule="evenodd"/><rect x="637" y="537" width="100" height="13.0001" fill="#FFFFFF"/><text font-family="Arial,Arial_MSFontService,sans-serif" font-weight="400" font-size="55" transform="matrix(1 0 0 1 1134.22 398)">Zylinder</text><text font-family="Arial,Arial_MSFontService,sans-serif" font-weight="400" font-size="55" transform="matrix(1 0 0 1 1242.88 259)">Trichter</text><text font-family="Arial,Arial_MSFontService,sans-serif" font-weight="400" font-size="55" transform="matrix(1 0 0 1 1331.35 728)">Schnecke</text><path d="M1407.65 682.77 1386.5 563.5" stroke="#000000" stroke-width="4.58333" stroke-linejoin="round" stroke-miterlimit="10" fill="none" fill-rule="evenodd"/><path d="M1502.55 345.302 1419.5 262.5" stroke="#000000" stroke-width="4.58333" stroke-linejoin="round" stroke-miterlimit="10" fill="none" fill-rule="evenodd"/><path d="M0 0 59.1405 57.3407" stroke="#000000" stroke-width="4.58333" stroke-linejoin="round" stroke-miterlimit="10" fill="none" fill-rule="evenodd" transform="matrix(1 0 0 -1 1081.5 486.841)"/><text font-family="Arial,Arial_MSFontService,sans-serif" font-weight="400" font-size="55" transform="matrix(1 0 0 1 81.2807 121)">bewegliche </text><text font-family="Arial,Arial_MSFontService,sans-serif" font-weight="400" font-size="55" transform="matrix(1 0 0 1 35.6766 187)">Werkzeughälfte</text><text font-family="Arial,Arial_MSFontService,sans-serif" font-weight="400" font-size="55" transform="matrix(1 0 0 1 923.062 121)">feste </text><text font-family="Arial,Arial_MSFontService,sans-serif" font-weight="400" font-size="55" transform="matrix(1 0 0 1 800.389 187)">Werkzeughälfte</text><text font-family="Arial,Arial_MSFontService,sans-serif" font-weight="400" font-size="55" transform="matrix(1 0 0 1 28.6346 771)">Schließeinheit</text><text font-family="Arial,Arial_MSFontService,sans-serif" font-weight="400" font-size="55" transform="matrix(1 0 0 1 1704.82 289)">Schneckenkolben</text><text font-family="Arial,Arial_MSFontService,sans-serif" font-weight="400" font-size="55" transform="matrix(1 0 0 1 486.573 154)">Formnest</text><path d="M132.419 709.117 108.5 599.5" stroke="#000000" stroke-width="4.58333" stroke-linejoin="round" stroke-miterlimit="10" fill="none" fill-rule="evenodd"/><path d="M226.5 218.5 466.322 400.304" stroke="#000000" stroke-width="4.58333" stroke-linejoin="round" stroke-miterlimit="10" fill="none" fill-rule="evenodd"/><path d="M0 0 20.8008 323.949" stroke="#000000" stroke-width="4.58333" stroke-linejoin="round" stroke-miterlimit="10" fill="none" fill-rule="evenodd" transform="matrix(-1 0 0 1 602.301 184.5)"/><path d="M0 0 26.3083 196.195" stroke="#000000" stroke-width="4.58333" stroke-linejoin="round" stroke-miterlimit="10" fill="none" fill-rule="evenodd" transform="matrix(-1 0 0 1 1867.81 309.5)"/><path d="M0 0 150.372 194.618" stroke="#000000" stroke-width="4.58333" stroke-linejoin="round" stroke-miterlimit="10" fill="none" fill-rule="evenodd" transform="matrix(1 0 0 -1 653.5 413.118)"/><path d="M2052 803C2052 830.339 2048.31 852.501 2043.75 852.501L1409.75 852.499C1405.19 852.499 1401.5 874.661 1401.5 902 1401.5 874.661 1397.81 852.499 1393.25 852.499L759.249 852.499C754.693 852.499 751 830.337 751 802.999" stroke="#000000" stroke-width="3.60892" stroke-linejoin="round" stroke-miterlimit="10" fill="none" fill-rule="evenodd"/><text font-family="Arial,Arial_MSFontService,sans-serif" font-weight="400" font-size="55" transform="matrix(1 0 0 1 1230.83 971)">Spritzeinheit</text><path d="M735 803C735 830.338 731.306 852.5 726.75 852.5L577.749 852.5C573.193 852.5 569.5 874.662 569.5 902 569.5 874.662 565.806 852.5 561.25 852.5L412.249 852.5C407.693 852.5 404 830.338 404 803" stroke="#000000" stroke-width="3.60892" stroke-linejoin="round" stroke-miterlimit="10" fill="none" fill-rule="evenodd"/><text font-family="Arial,Arial_MSFontService,sans-serif" font-weight="400" font-size="55" transform="matrix(1 0 0 1 447.025 971)">Werkzeug</text><text font-family="Arial,Arial_MSFontService,sans-serif" font-weight="400" font-size="55" transform="matrix(1 0 0 1 801.016 398)">Anguss</text><path d="M0 0 99.6908 113.857" stroke="#000000" stroke-width="4.58333" stroke-linejoin="round" stroke-miterlimit="10" fill="none" fill-rule="evenodd" transform="matrix(1 0 0 -1 689.5 543.357)"/></g></svg>