<?xml version="1.0" encoding="UTF-8" standalone="no"?>
<svg
   width="405.55542pt"
   height="287.78589pt"
   viewBox="0 0 405.55543 287.78588"
   version="1.1"
   id="svg96"
   sodipodi:docname="scatter_quadratmeter_miete_train_test.svg"
   inkscape:version="1.4.2 (f4327f4, 2025-05-13)"
   xmlns:inkscape="http://www.inkscape.org/namespaces/inkscape"
   xmlns:sodipodi="http://sodipodi.sourceforge.net/DTD/sodipodi-0.dtd"
   xmlns:xlink="http://www.w3.org/1999/xlink"
   xmlns="http://www.w3.org/2000/svg"
   xmlns:svg="http://www.w3.org/2000/svg"
   xmlns:rdf="http://www.w3.org/1999/02/22-rdf-syntax-ns#"
   xmlns:cc="http://creativecommons.org/ns#"
   xmlns:dc="http://purl.org/dc/elements/1.1/">
  <sodipodi:namedview
     id="namedview96"
     pagecolor="#ffffff"
     bordercolor="#111111"
     borderopacity="1"
     inkscape:showpageshadow="0"
     inkscape:pageopacity="0"
     inkscape:pagecheckerboard="1"
     inkscape:deskcolor="#d1d1d1"
     inkscape:document-units="pt"
     inkscape:zoom="1.7513021"
     inkscape:cx="283.21785"
     inkscape:cy="180.15168"
     inkscape:window-width="1920"
     inkscape:window-height="1009"
     inkscape:window-x="-8"
     inkscape:window-y="-8"
     inkscape:window-maximized="1"
     inkscape:current-layer="svg96" />
  <metadata
     id="metadata1">
    <rdf:RDF>
      <cc:Work>
        <dc:type
           rdf:resource="http://purl.org/dc/dcmitype/StillImage" />
        <dc:date>2026-06-25T12:47:37.851032</dc:date>
        <dc:format>image/svg+xml</dc:format>
        <dc:creator>
          <cc:Agent>
            <dc:title>Matplotlib v3.10.3, https://matplotlib.org/</dc:title>
          </cc:Agent>
        </dc:creator>
      </cc:Work>
    </rdf:RDF>
  </metadata>
  <defs
     id="defs1">
    <style
       type="text/css"
       id="style1">*{stroke-linejoin: round; stroke-linecap: butt}</style>
    <clipPath
       clipPathUnits="userSpaceOnUse"
       id="clipPath97">
      <rect
         style="fill:#000000;stroke:#000000;stroke-width:0.999998"
         id="rect98"
         width="405.55542"
         height="287.78589"
         x="17.986618"
         y="37.686249" />
    </clipPath>
  </defs>
  <g
     id="figure_1"
     clip-path="url(#clipPath97)"
     transform="translate(-17.986618,-37.686249)">
    <g
       id="patch_1">
      <path
         d="M 0,345.6 H 460.8 V 0 H 0 Z"
         style="fill:#ffffff"
         id="path1" />
    </g>
    <g
       id="axes_1">
      <g
         id="patch_2">
        <path
           d="M 57.6,307.584 H 414.72 V 41.472 H 57.6 Z"
           style="fill:#ffffff"
           id="path2" />
      </g>
      <g
         id="PathCollection_1">
        <defs
           id="defs2">
          <path
             id="mefed9620b8"
             d="M 0,3 C 0.795609,3 1.55874,2.683901 2.12132,2.12132 2.683901,1.55874 3,0.795609 3,0 3,-0.795609 2.683901,-1.55874 2.12132,-2.12132 1.55874,-2.683901 0.795609,-3 0,-3 -0.795609,-3 -1.55874,-2.683901 -2.12132,-2.12132 -2.683901,-1.55874 -3,-0.795609 -3,0 -3,0.795609 -2.683901,1.55874 -2.12132,2.12132 -1.55874,2.683901 -0.795609,3 0,3 Z"
             style="stroke:#1f77b4" />
        </defs>
        <g
           clip-path="url(#pe168c09fca)"
           id="g38">
          <use
             xlink:href="#mefed9620b8"
             x="236.16"
             y="177.89842"
             style="fill:#1f77b4;stroke:#1f77b4"
             id="use2" />
          <use
             xlink:href="#mefed9620b8"
             x="332.23123"
             y="126.16613"
             style="fill:#1f77b4;stroke:#1f77b4"
             id="use3" />
          <use
             xlink:href="#mefed9620b8"
             x="146.71436"
             y="239.67892"
             style="fill:#1f77b4;stroke:#1f77b4"
             id="use4" />
          <use
             xlink:href="#mefed9620b8"
             x="269.28802"
             y="163.19844"
             style="fill:#1f77b4;stroke:#1f77b4"
             id="use5" />
          <use
             xlink:href="#mefed9620b8"
             x="398.48727"
             y="53.568001"
             style="fill:#1f77b4;stroke:#1f77b4"
             id="use6" />
          <use
             xlink:href="#mefed9620b8"
             x="120.21194"
             y="265.7157"
             style="fill:#1f77b4;stroke:#1f77b4"
             id="use7" />
          <use
             xlink:href="#mefed9620b8"
             x="203.03198"
             y="200.19351"
             style="fill:#1f77b4;stroke:#1f77b4"
             id="use8" />
          <use
             xlink:href="#mefed9620b8"
             x="193.09358"
             y="207.06055"
             style="fill:#1f77b4;stroke:#1f77b4"
             id="use9" />
          <use
             xlink:href="#mefed9620b8"
             x="242.7856"
             y="171.4637"
             style="fill:#1f77b4;stroke:#1f77b4"
             id="use10" />
          <use
             xlink:href="#mefed9620b8"
             x="73.832726"
             y="295.48801"
             style="fill:#1f77b4;stroke:#1f77b4"
             id="use11" />
          <use
             xlink:href="#mefed9620b8"
             x="219.59599"
             y="195.08047"
             style="fill:#1f77b4;stroke:#1f77b4"
             id="use12" />
          <use
             xlink:href="#mefed9620b8"
             x="219.59599"
             y="206.28284"
             style="fill:#1f77b4;stroke:#1f77b4"
             id="use13" />
          <use
             xlink:href="#mefed9620b8"
             x="176.52957"
             y="216.98257"
             style="fill:#1f77b4;stroke:#1f77b4"
             id="use14" />
          <use
             xlink:href="#mefed9620b8"
             x="236.16"
             y="173.35626"
             style="fill:#1f77b4;stroke:#1f77b4"
             id="use15" />
          <use
             xlink:href="#mefed9620b8"
             x="239.47279"
             y="191.17123"
             style="fill:#1f77b4;stroke:#1f77b4"
             id="use16" />
          <use
             xlink:href="#mefed9620b8"
             x="305.72882"
             y="128.27382"
             style="fill:#1f77b4;stroke:#1f77b4"
             id="use17" />
          <use
             xlink:href="#mefed9620b8"
             x="242.7856"
             y="168.35905"
             style="fill:#1f77b4;stroke:#1f77b4"
             id="use18" />
          <use
             xlink:href="#mefed9620b8"
             x="203.03198"
             y="213.15607"
             style="fill:#1f77b4;stroke:#1f77b4"
             id="use19" />
          <use
             xlink:href="#mefed9620b8"
             x="269.28802"
             y="150.06628"
             style="fill:#1f77b4;stroke:#1f77b4"
             id="use20" />
          <use
             xlink:href="#mefed9620b8"
             x="289.16483"
             y="163.92444"
             style="fill:#1f77b4;stroke:#1f77b4"
             id="use21" />
          <use
             xlink:href="#mefed9620b8"
             x="328.91846"
             y="137.6622"
             style="fill:#1f77b4;stroke:#1f77b4"
             id="use22" />
          <use
             xlink:href="#mefed9620b8"
             x="275.9136"
             y="160.87151"
             style="fill:#1f77b4;stroke:#1f77b4"
             id="use23" />
          <use
             xlink:href="#mefed9620b8"
             x="153.33997"
             y="233.46136"
             style="fill:#1f77b4;stroke:#1f77b4"
             id="use24" />
          <use
             xlink:href="#mefed9620b8"
             x="222.9088"
             y="190.99956"
             style="fill:#1f77b4;stroke:#1f77b4"
             id="use25" />
          <use
             xlink:href="#mefed9620b8"
             x="275.9136"
             y="171.0976"
             style="fill:#1f77b4;stroke:#1f77b4"
             id="use26" />
          <use
             xlink:href="#mefed9620b8"
             x="196.40639"
             y="202.33842"
             style="fill:#1f77b4;stroke:#1f77b4"
             id="use27" />
          <use
             xlink:href="#mefed9620b8"
             x="209.65759"
             y="206.06566"
             style="fill:#1f77b4;stroke:#1f77b4"
             id="use28" />
          <use
             xlink:href="#mefed9620b8"
             x="249.41121"
             y="182.67845"
             style="fill:#1f77b4;stroke:#1f77b4"
             id="use29" />
          <use
             xlink:href="#mefed9620b8"
             x="345.48245"
             y="107.75961"
             style="fill:#1f77b4;stroke:#1f77b4"
             id="use30" />
          <use
             xlink:href="#mefed9620b8"
             x="262.66241"
             y="169.9848"
             style="fill:#1f77b4;stroke:#1f77b4"
             id="use31" />
          <use
             xlink:href="#mefed9620b8"
             x="206.34479"
             y="195.34729"
             style="fill:#1f77b4;stroke:#1f77b4"
             id="use32" />
          <use
             xlink:href="#mefed9620b8"
             x="169.90398"
             y="226.82806"
             style="fill:#1f77b4;stroke:#1f77b4"
             id="use33" />
          <use
             xlink:href="#mefed9620b8"
             x="206.34479"
             y="201.30217"
             style="fill:#1f77b4;stroke:#1f77b4"
             id="use34" />
          <use
             xlink:href="#mefed9620b8"
             x="229.53439"
             y="186.08922"
             style="fill:#1f77b4;stroke:#1f77b4"
             id="use35" />
          <use
             xlink:href="#mefed9620b8"
             x="269.28802"
             y="161.03078"
             style="fill:#1f77b4;stroke:#1f77b4"
             id="use36" />
          <use
             xlink:href="#mefed9620b8"
             x="196.40639"
             y="220.29819"
             style="fill:#1f77b4;stroke:#1f77b4"
             id="use37" />
          <use
             xlink:href="#mefed9620b8"
             x="299.10324"
             y="148.79008"
             style="fill:#1f77b4;stroke:#1f77b4"
             id="use38" />
        </g>
      </g>
      <g
         id="PathCollection_2">
        <defs
           id="defs38">
          <path
             id="ma8b885b672"
             d="M 0,3 C 0.795609,3 1.55874,2.683901 2.12132,2.12132 2.683901,1.55874 3,0.795609 3,0 3,-0.795609 2.683901,-1.55874 2.12132,-2.12132 1.55874,-2.683901 0.795609,-3 0,-3 -0.795609,-3 -1.55874,-2.683901 -2.12132,-2.12132 -2.683901,-1.55874 -3,-0.795609 -3,0 -3,0.795609 -2.683901,1.55874 -2.12132,2.12132 -1.55874,2.683901 -0.795609,3 0,3 Z"
             style="stroke:#ff7f0e" />
        </defs>
        <g
           clip-path="url(#pe168c09fca)"
           id="g51">
          <use
             xlink:href="#ma8b885b672"
             x="166.59117"
             y="239.42038"
             style="fill:#ff7f0e;stroke:#ff7f0e"
             id="use39" />
          <use
             xlink:href="#ma8b885b672"
             x="269.28802"
             y="148.73424"
             style="fill:#ff7f0e;stroke:#ff7f0e"
             id="use40" />
          <use
             xlink:href="#ma8b885b672"
             x="295.79044"
             y="128.21384"
             style="fill:#ff7f0e;stroke:#ff7f0e"
             id="use41" />
          <use
             xlink:href="#ma8b885b672"
             x="328.91846"
             y="134.17284"
             style="fill:#ff7f0e;stroke:#ff7f0e"
             id="use42" />
          <use
             xlink:href="#ma8b885b672"
             x="338.85684"
             y="101.75922"
             style="fill:#ff7f0e;stroke:#ff7f0e"
             id="use43" />
          <use
             xlink:href="#ma8b885b672"
             x="362.04645"
             y="96.278015"
             style="fill:#ff7f0e;stroke:#ff7f0e"
             id="use44" />
          <use
             xlink:href="#ma8b885b672"
             x="272.60083"
             y="143.19511"
             style="fill:#ff7f0e;stroke:#ff7f0e"
             id="use45" />
          <use
             xlink:href="#ma8b885b672"
             x="186.46797"
             y="227.8726"
             style="fill:#ff7f0e;stroke:#ff7f0e"
             id="use46" />
          <use
             xlink:href="#ma8b885b672"
             x="216.28319"
             y="192.88799"
             style="fill:#ff7f0e;stroke:#ff7f0e"
             id="use47" />
          <use
             xlink:href="#ma8b885b672"
             x="199.71918"
             y="212.52521"
             style="fill:#ff7f0e;stroke:#ff7f0e"
             id="use48" />
          <use
             xlink:href="#ma8b885b672"
             x="236.16"
             y="186.18437"
             style="fill:#ff7f0e;stroke:#ff7f0e"
             id="use49" />
          <use
             xlink:href="#ma8b885b672"
             x="282.53922"
             y="149.35269"
             style="fill:#ff7f0e;stroke:#ff7f0e"
             id="use50" />
          <use
             xlink:href="#ma8b885b672"
             x="252.72401"
             y="182.04553"
             style="fill:#ff7f0e;stroke:#ff7f0e"
             id="use51" />
        </g>
      </g>
      <g
         id="matplotlib.axis_1">
        <g
           id="xtick_1">
          <g
             id="line2d_1">
            <defs
               id="defs51">
              <path
                 id="m65e2477237"
                 d="M 0,0 V 3.5"
                 style="stroke:#000000;stroke-width:0.8" />
            </defs>
            <g
               id="g52">
              <use
                 xlink:href="#m65e2477237"
                 x="103.64794"
                 y="307.58401"
                 style="stroke:#000000;stroke-width:0.8"
                 id="use52" />
            </g>
          </g>
          <g
             id="text_1">
            <!-- 20 -->
            <g
               transform="matrix(0.1,0,0,-0.1,97.285441,322.18244)"
               id="g54">
              <defs
                 id="defs52">
                <path
                   id="DejaVuSans-32"
                   d="M 1228,531 H 3431 V 0 H 469 v 531 q 359,372 979,998 621,627 780,809 303,340 423,576 121,236 121,464 0,372 -261,606 -261,235 -680,235 -297,0 -627,-103 -329,-103 -704,-313 v 638 q 381,153 712,231 332,78 607,78 725,0 1156,-363 431,-362 431,-968 0,-288 -108,-546 -107,-257 -392,-607 -78,-91 -497,-524 Q 1991,1309 1228,531 Z"
                   transform="scale(0.015625)" />
                <path
                   id="DejaVuSans-30"
                   d="m 2034,4250 q -487,0 -733,-480 -245,-479 -245,-1442 0,-959 245,-1439 246,-480 733,-480 491,0 736,480 246,480 246,1439 0,963 -246,1442 -245,480 -736,480 z m 0,500 q 785,0 1199,-621 414,-620 414,-1801 0,-1178 -414,-1799 -414,-620 -1199,-620 -784,0 -1198,620 -414,621 -414,1799 0,1181 414,1801 414,621 1198,621 z"
                   transform="scale(0.015625)" />
              </defs>
              <use
                 xlink:href="#DejaVuSans-32"
                 id="use53" />
              <use
                 xlink:href="#DejaVuSans-30"
                 transform="translate(63.623047)"
                 id="use54" />
            </g>
          </g>
        </g>
        <g
           id="xtick_2">
          <g
             id="line2d_2">
            <g
               id="g55">
              <use
                 xlink:href="#m65e2477237"
                 x="169.90398"
                 y="307.58401"
                 style="stroke:#000000;stroke-width:0.8"
                 id="use55" />
            </g>
          </g>
          <g
             id="text_2">
            <!-- 40 -->
            <g
               transform="matrix(0.1,0,0,-0.1,163.54147,322.18244)"
               id="g57">
              <defs
                 id="defs55">
                <path
                   id="DejaVuSans-34"
                   d="M 2419,4116 825,1625 h 1594 z m -166,550 h 794 V 1625 h 666 V 1100 H 3047 V 0 H 2419 V 1100 H 313 v 609 z"
                   transform="scale(0.015625)" />
              </defs>
              <use
                 xlink:href="#DejaVuSans-34"
                 id="use56" />
              <use
                 xlink:href="#DejaVuSans-30"
                 transform="translate(63.623047)"
                 id="use57" />
            </g>
          </g>
        </g>
        <g
           id="xtick_3">
          <g
             id="line2d_3">
            <g
               id="g58">
              <use
                 xlink:href="#m65e2477237"
                 x="236.16"
                 y="307.58401"
                 style="stroke:#000000;stroke-width:0.8"
                 id="use58" />
            </g>
          </g>
          <g
             id="text_3">
            <!-- 60 -->
            <g
               transform="matrix(0.1,0,0,-0.1,229.7975,322.18244)"
               id="g60">
              <defs
                 id="defs58">
                <path
                   id="DejaVuSans-36"
                   d="m 2113,2584 q -425,0 -674,-291 -248,-290 -248,-796 0,-503 248,-796 249,-292 674,-292 425,0 673,292 248,293 248,796 0,506 -248,796 -248,291 -673,291 z m 1253,1979 v -575 q -238,112 -480,171 -242,60 -480,60 -625,0 -955,-422 -329,-422 -376,-1275 184,272 462,417 279,145 613,145 703,0 1111,-427 408,-426 408,-1160 0,-719 -425,-1154 -425,-434 -1131,-434 -810,0 -1238,620 -428,621 -428,1799 0,1106 525,1764 525,658 1409,658 238,0 480,-47 242,-47 505,-140 z"
                   transform="scale(0.015625)" />
              </defs>
              <use
                 xlink:href="#DejaVuSans-36"
                 id="use59" />
              <use
                 xlink:href="#DejaVuSans-30"
                 transform="translate(63.623047)"
                 id="use60" />
            </g>
          </g>
        </g>
        <g
           id="xtick_4">
          <g
             id="line2d_4">
            <g
               id="g61">
              <use
                 xlink:href="#m65e2477237"
                 x="302.41602"
                 y="307.58401"
                 style="stroke:#000000;stroke-width:0.8"
                 id="use61" />
            </g>
          </g>
          <g
             id="text_4">
            <!-- 80 -->
            <g
               transform="matrix(0.1,0,0,-0.1,296.05353,322.18244)"
               id="g63">
              <defs
                 id="defs61">
                <path
                   id="DejaVuSans-38"
                   d="m 2034,2216 q -450,0 -708,-241 -257,-241 -257,-662 0,-422 257,-663 258,-241 708,-241 450,0 709,242 260,243 260,662 0,421 -258,662 -257,241 -711,241 z m -631,268 q -406,100 -633,378 -226,279 -226,679 0,559 398,884 399,325 1092,325 697,0 1094,-325 397,-325 397,-884 0,-400 -227,-679 -226,-278 -629,-378 456,-106 710,-416 255,-309 255,-755 Q 3634,634 3220,271 2806,-91 2034,-91 1263,-91 848,271 434,634 434,1313 q 0,446 256,755 257,310 713,416 z m -231,997 q 0,-362 226,-565 227,-203 636,-203 407,0 636,203 230,203 230,565 0,363 -230,566 -229,203 -636,203 -409,0 -636,-203 -226,-203 -226,-566 z"
                   transform="scale(0.015625)" />
              </defs>
              <use
                 xlink:href="#DejaVuSans-38"
                 id="use62" />
              <use
                 xlink:href="#DejaVuSans-30"
                 transform="translate(63.623047)"
                 id="use63" />
            </g>
          </g>
        </g>
        <g
           id="xtick_5">
          <g
             id="line2d_5">
            <g
               id="g64">
              <use
                 xlink:href="#m65e2477237"
                 x="368.67206"
                 y="307.58401"
                 style="stroke:#000000;stroke-width:0.8"
                 id="use64" />
            </g>
          </g>
          <g
             id="text_5">
            <!-- 100 -->
            <g
               transform="matrix(0.1,0,0,-0.1,359.12831,322.18244)"
               id="g67">
              <defs
                 id="defs64">
                <path
                   id="DejaVuSans-31"
                   d="M 794,531 H 1825 V 4091 L 703,3866 v 575 l 1116,225 h 631 V 531 H 3481 V 0 H 794 Z"
                   transform="scale(0.015625)" />
              </defs>
              <use
                 xlink:href="#DejaVuSans-31"
                 id="use65" />
              <use
                 xlink:href="#DejaVuSans-30"
                 transform="translate(63.623047)"
                 id="use66" />
              <use
                 xlink:href="#DejaVuSans-30"
                 transform="translate(127.24609)"
                 id="use67" />
            </g>
          </g>
        </g>
      </g>
      <g
         id="matplotlib.axis_2">
        <g
           id="ytick_1">
          <g
             id="line2d_6">
            <defs
               id="defs67">
              <path
                 id="me976ef0d5d"
                 d="M 0,0 H -3.5"
                 style="stroke:#000000;stroke-width:0.8" />
            </defs>
            <g
               id="g68">
              <use
                 xlink:href="#me976ef0d5d"
                 x="57.599998"
                 y="279.22845"
                 style="stroke:#000000;stroke-width:0.8"
                 id="use68" />
            </g>
          </g>
          <g
             id="text_6">
            <!-- 200 -->
            <g
               transform="matrix(0.1,0,0,-0.1,31.5125,283.02767)"
               id="g71">
              <use
                 xlink:href="#DejaVuSans-32"
                 id="use69" />
              <use
                 xlink:href="#DejaVuSans-30"
                 transform="translate(63.623047)"
                 id="use70" />
              <use
                 xlink:href="#DejaVuSans-30"
                 transform="translate(127.24609)"
                 id="use71" />
            </g>
          </g>
        </g>
        <g
           id="ytick_2">
          <g
             id="line2d_7">
            <g
               id="g72">
              <use
                 xlink:href="#me976ef0d5d"
                 x="57.599998"
                 y="237.86081"
                 style="stroke:#000000;stroke-width:0.8"
                 id="use72" />
            </g>
          </g>
          <g
             id="text_7">
            <!-- 400 -->
            <g
               transform="matrix(0.1,0,0,-0.1,31.5125,241.66003)"
               id="g75">
              <use
                 xlink:href="#DejaVuSans-34"
                 id="use73" />
              <use
                 xlink:href="#DejaVuSans-30"
                 transform="translate(63.623047)"
                 id="use74" />
              <use
                 xlink:href="#DejaVuSans-30"
                 transform="translate(127.24609)"
                 id="use75" />
            </g>
          </g>
        </g>
        <g
           id="ytick_3">
          <g
             id="line2d_8">
            <g
               id="g76">
              <use
                 xlink:href="#me976ef0d5d"
                 x="57.599998"
                 y="196.49318"
                 style="stroke:#000000;stroke-width:0.8"
                 id="use76" />
            </g>
          </g>
          <g
             id="text_8">
            <!-- 600 -->
            <g
               transform="matrix(0.1,0,0,-0.1,31.5125,200.2924)"
               id="g79">
              <use
                 xlink:href="#DejaVuSans-36"
                 id="use77" />
              <use
                 xlink:href="#DejaVuSans-30"
                 transform="translate(63.623047)"
                 id="use78" />
              <use
                 xlink:href="#DejaVuSans-30"
                 transform="translate(127.24609)"
                 id="use79" />
            </g>
          </g>
        </g>
        <g
           id="ytick_4">
          <g
             id="line2d_9">
            <g
               id="g80">
              <use
                 xlink:href="#me976ef0d5d"
                 x="57.599998"
                 y="155.12555"
                 style="stroke:#000000;stroke-width:0.8"
                 id="use80" />
            </g>
          </g>
          <g
             id="text_9">
            <!-- 800 -->
            <g
               transform="matrix(0.1,0,0,-0.1,31.5125,158.92476)"
               id="g83">
              <use
                 xlink:href="#DejaVuSans-38"
                 id="use81" />
              <use
                 xlink:href="#DejaVuSans-30"
                 transform="translate(63.623047)"
                 id="use82" />
              <use
                 xlink:href="#DejaVuSans-30"
                 transform="translate(127.24609)"
                 id="use83" />
            </g>
          </g>
        </g>
        <g
           id="ytick_5">
          <g
             id="line2d_10">
            <g
               id="g84">
              <use
                 xlink:href="#me976ef0d5d"
                 x="57.599998"
                 y="113.75791"
                 style="stroke:#000000;stroke-width:0.8"
                 id="use84" />
            </g>
          </g>
          <g
             id="text_10">
            <!-- 1000 -->
            <g
               transform="matrix(0.1,0,0,-0.1,25.15,117.55713)"
               id="g88">
              <use
                 xlink:href="#DejaVuSans-31"
                 id="use85" />
              <use
                 xlink:href="#DejaVuSans-30"
                 transform="translate(63.623047)"
                 id="use86" />
              <use
                 xlink:href="#DejaVuSans-30"
                 transform="translate(127.24609)"
                 id="use87" />
              <use
                 xlink:href="#DejaVuSans-30"
                 transform="translate(190.86914)"
                 id="use88" />
            </g>
          </g>
        </g>
        <g
           id="ytick_6">
          <g
             id="line2d_11">
            <g
               id="g89">
              <use
                 xlink:href="#me976ef0d5d"
                 x="57.599998"
                 y="72.390274"
                 style="stroke:#000000;stroke-width:0.8"
                 id="use89" />
            </g>
          </g>
          <g
             id="text_11">
            <!-- 1200 -->
            <g
               transform="matrix(0.1,0,0,-0.1,25.15,76.189493)"
               id="g93">
              <use
                 xlink:href="#DejaVuSans-31"
                 id="use90" />
              <use
                 xlink:href="#DejaVuSans-32"
                 transform="translate(63.623047)"
                 id="use91" />
              <use
                 xlink:href="#DejaVuSans-30"
                 transform="translate(127.24609)"
                 id="use92" />
              <use
                 xlink:href="#DejaVuSans-30"
                 transform="translate(190.86914)"
                 id="use93" />
            </g>
          </g>
        </g>
      </g>
      <g
         id="patch_3">
        <path
           d="M 57.6,307.584 V 41.472"
           style="fill:none;stroke:#000000;stroke-width:0.8;stroke-linecap:square;stroke-linejoin:miter"
           id="path93" />
      </g>
      <g
         id="patch_4">
        <path
           d="M 414.72,307.584 V 41.472"
           style="fill:none;stroke:#000000;stroke-width:0.8;stroke-linecap:square;stroke-linejoin:miter"
           id="path94" />
      </g>
      <g
         id="patch_5">
        <path
           d="M 57.6,307.584 H 414.72"
           style="fill:none;stroke:#000000;stroke-width:0.8;stroke-linecap:square;stroke-linejoin:miter"
           id="path95" />
      </g>
      <g
         id="patch_6">
        <path
           d="M 57.6,41.472 H 414.72"
           style="fill:none;stroke:#000000;stroke-width:0.8;stroke-linecap:square;stroke-linejoin:miter"
           id="path96" />
      </g>
    </g>
  </g>
  <defs
     id="defs96">
    <clipPath
       id="pe168c09fca">
      <rect
         x="57.599998"
         y="41.472"
         width="357.12"
         height="266.112"
         id="rect96" />
    </clipPath>
  </defs>
</svg>
