<?xml version="1.0" encoding="utf-8" standalone="no"?>
<!DOCTYPE svg PUBLIC "-//W3C//DTD SVG 1.1//EN"
  "http://www.w3.org/Graphics/SVG/1.1/DTD/svg11.dtd">
<svg xmlns:xlink="http://www.w3.org/1999/xlink" width="424.4475pt" height="279.99625pt" viewBox="0 0 424.4475 279.99625" xmlns="http://www.w3.org/2000/svg" version="1.1">
 <metadata>
  <rdf:RDF xmlns:dc="http://purl.org/dc/elements/1.1/" xmlns:cc="http://creativecommons.org/ns#" xmlns:rdf="http://www.w3.org/1999/02/22-rdf-syntax-ns#">
   <cc:Work>
    <dc:type rdf:resource="http://purl.org/dc/dcmitype/StillImage"/>
    <dc:date>2026-07-09T20:13:26.080391</dc:date>
    <dc:format>image/svg+xml</dc:format>
    <dc:creator>
     <cc:Agent>
      <dc:title>Matplotlib v3.10.3, https://matplotlib.org/</dc:title>
     </cc:Agent>
    </dc:creator>
   </cc:Work>
  </rdf:RDF>
 </metadata>
 <defs>
  <style type="text/css">*{stroke-linejoin: round; stroke-linecap: butt}</style>
 </defs>
 <g id="figure_1">
  <g id="patch_1">
   <path d="M 0 279.99625 
L 424.4475 279.99625 
L 424.4475 0 
L 0 0 
z
" style="fill: #ffffff"/>
  </g>
  <g id="axes_1">
   <g id="patch_2">
    <path d="M 43.78125 242.44 
L 414.06625 242.44 
L 414.06625 7.2 
L 43.78125 7.2 
z
" style="fill: #ffffff"/>
   </g>
   <g id="FillBetweenPolyCollection_1">
    <path d="M 43.78125 242.439997 
L 43.78125 236.553113 
L 44.151906 236.530112 
L 44.522561 236.506978 
L 44.893217 236.483709 
L 45.263873 236.460304 
L 45.634528 236.436762 
L 46.005184 236.413082 
L 46.37584 236.389263 
L 46.746495 236.365303 
L 47.117151 236.341203 
L 47.487807 236.31696 
L 47.858462 236.292574 
L 48.229118 236.268043 
L 48.599774 236.243367 
L 48.970429 236.218544 
L 49.341085 236.193573 
L 49.71174 236.168452 
L 50.082396 236.143182 
L 50.453052 236.117759 
L 50.823707 236.092184 
L 51.194363 236.066456 
L 51.565019 236.040571 
L 51.935674 236.014531 
L 52.30633 235.988333 
L 52.676986 235.961976 
L 53.047641 235.935459 
L 53.418297 235.90878 
L 53.788953 235.881939 
L 54.159608 235.854933 
L 54.530264 235.827763 
L 54.90092 235.800425 
L 55.271575 235.772919 
L 55.642231 235.745244 
L 56.012887 235.717398 
L 56.383542 235.68938 
L 56.754198 235.661188 
L 57.124854 235.632821 
L 57.495509 235.604277 
L 57.866165 235.575556 
L 58.236821 235.546655 
L 58.607476 235.517573 
L 58.978132 235.488309 
L 59.348788 235.458861 
L 59.719443 235.429228 
L 60.090099 235.399407 
L 60.460755 235.369398 
L 60.83141 235.339199 
L 61.202066 235.308809 
L 61.572721 235.278224 
L 61.943377 235.247445 
L 62.314033 235.21647 
L 62.684688 235.185296 
L 63.055344 235.153922 
L 63.426 235.122347 
L 63.796655 235.090569 
L 64.167311 235.058585 
L 64.537967 235.026395 
L 64.908622 234.993996 
L 65.279278 234.961386 
L 65.649934 234.928565 
L 66.020589 234.89553 
L 66.391245 234.862279 
L 66.761901 234.82881 
L 67.132556 234.795122 
L 67.503212 234.761212 
L 67.873868 234.727079 
L 68.244523 234.692721 
L 68.615179 234.658135 
L 68.985835 234.62332 
L 69.35649 234.588274 
L 69.727146 234.552995 
L 70.097802 234.51748 
L 70.468457 234.481728 
L 70.839113 234.445737 
L 71.209769 234.409504 
L 71.580424 234.373027 
L 71.95108 234.336305 
L 72.321735 234.299334 
L 72.692391 234.262113 
L 73.063047 234.224639 
L 73.433702 234.186911 
L 73.804358 234.148926 
L 74.175014 234.110681 
L 74.545669 234.072175 
L 74.916325 234.033404 
L 75.286981 233.994368 
L 75.657636 233.955062 
L 76.028292 233.915485 
L 76.398948 233.875634 
L 76.769603 233.835507 
L 77.140259 233.795102 
L 77.510915 233.754415 
L 77.88157 233.713444 
L 78.252226 233.672186 
L 78.622882 233.630639 
L 78.993537 233.588801 
L 79.364193 233.546668 
L 79.734849 233.504238 
L 80.105504 233.461508 
L 80.47616 233.418475 
L 80.846816 233.375136 
L 81.217471 233.331489 
L 81.588127 233.28753 
L 81.958783 233.243257 
L 82.329438 233.198667 
L 82.700094 233.153757 
L 83.070749 233.108524 
L 83.441405 233.062964 
L 83.812061 233.017074 
L 84.182716 232.970853 
L 84.553372 232.924295 
L 84.924028 232.877398 
L 85.294683 232.83016 
L 85.665339 232.782575 
L 86.035995 232.734643 
L 86.40665 232.686357 
L 86.777306 232.637717 
L 87.147962 232.588717 
L 87.518617 232.539355 
L 87.889273 232.489627 
L 88.259929 232.439529 
L 88.630584 232.389058 
L 89.00124 232.338211 
L 89.371896 232.286983 
L 89.742551 232.23537 
L 90.113207 232.18337 
L 90.483863 232.130977 
L 90.854518 232.078189 
L 91.225174 232.025001 
L 91.59583 231.97141 
L 91.966485 231.917411 
L 92.337141 231.863 
L 92.707797 231.808173 
L 93.078452 231.752927 
L 93.449108 231.697255 
L 93.819764 231.641156 
L 94.190419 231.584623 
L 94.561075 231.527654 
L 94.93173 231.470242 
L 95.302386 231.412385 
L 95.673042 231.354077 
L 96.043697 231.295313 
L 96.414353 231.23609 
L 96.785009 231.176401 
L 97.155664 231.116243 
L 97.52632 231.055611 
L 97.896976 230.9945 
L 98.267631 230.932904 
L 98.638287 230.87082 
L 99.008943 230.808241 
L 99.379598 230.745162 
L 99.750254 230.681579 
L 100.12091 230.617486 
L 100.491565 230.552877 
L 100.862221 230.487748 
L 101.232877 230.422092 
L 101.603532 230.355905 
L 101.974188 230.28918 
L 102.344844 230.221912 
L 102.715499 230.154095 
L 103.086155 230.085723 
L 103.456811 230.01679 
L 103.827466 229.947291 
L 104.198122 229.877218 
L 104.568778 229.806567 
L 104.939433 229.73533 
L 105.310089 229.663502 
L 105.680744 229.591075 
L 106.0514 229.518044 
L 106.422056 229.444402 
L 106.792711 229.370142 
L 107.163367 229.295258 
L 107.534023 229.219741 
L 107.904678 229.143587 
L 108.275334 229.066787 
L 108.64599 228.989334 
L 109.016645 228.911221 
L 109.387301 228.832441 
L 109.757957 228.752987 
L 110.128612 228.67285 
L 110.499268 228.592023 
L 110.869924 228.510499 
L 111.240579 228.428269 
L 111.611235 228.345326 
L 111.981891 228.261662 
L 112.352546 228.177268 
L 112.723202 228.092135 
L 113.093858 228.006257 
L 113.464513 227.919623 
L 113.835169 227.832226 
L 114.205825 227.744057 
L 114.57648 227.655107 
L 114.947136 227.565366 
L 115.317792 227.474826 
L 115.688447 227.383477 
L 116.059103 227.291311 
L 116.429759 227.198317 
L 116.800414 227.104485 
L 117.17107 227.009807 
L 117.541725 226.914272 
L 117.912381 226.817869 
L 118.283037 226.72059 
L 118.653692 226.622422 
L 119.024348 226.523357 
L 119.395004 226.423383 
L 119.765659 226.322489 
L 120.136315 226.220664 
L 120.506971 226.117898 
L 120.877626 226.014179 
L 121.248282 225.909495 
L 121.618938 225.803834 
L 121.989593 225.697186 
L 122.360249 225.589538 
L 122.730905 225.480878 
L 123.10156 225.371193 
L 123.472216 225.260471 
L 123.842872 225.148699 
L 124.213527 225.035865 
L 124.584183 224.921955 
L 124.954839 224.806956 
L 125.325494 224.690855 
L 125.69615 224.573638 
L 126.066806 224.455291 
L 126.437461 224.335799 
L 126.808117 224.215149 
L 127.178773 224.093327 
L 127.549428 223.970316 
L 127.920084 223.846104 
L 128.290739 223.720673 
L 128.661395 223.594009 
L 129.032051 223.466096 
L 129.402706 223.336919 
L 129.773362 223.206461 
L 130.144018 223.074705 
L 130.514673 222.941636 
L 130.885329 222.807236 
L 131.255985 222.671488 
L 131.62664 222.534375 
L 131.997296 222.395878 
L 132.367952 222.255981 
L 132.738607 222.114664 
L 133.109263 221.97191 
L 133.479919 221.827699 
L 133.850574 221.682013 
L 134.22123 221.534832 
L 134.591886 221.386136 
L 134.962541 221.235905 
L 135.333197 221.084119 
L 135.703853 220.930757 
L 136.074508 220.775798 
L 136.445164 220.619221 
L 136.81582 220.461005 
L 137.186475 220.301127 
L 137.557131 220.139565 
L 137.927787 219.976296 
L 138.298442 219.811297 
L 138.669098 219.644544 
L 139.039754 219.476015 
L 139.410409 219.305684 
L 139.781065 219.133527 
L 140.15172 218.959519 
L 140.522376 218.783635 
L 140.893032 218.605848 
L 141.263687 218.426133 
L 141.634343 218.244463 
L 142.004999 218.060811 
L 142.375654 217.875149 
L 142.74631 217.687449 
L 143.116966 217.497683 
L 143.487621 217.305821 
L 143.858277 217.111835 
L 144.228933 216.915695 
L 144.599588 216.71737 
L 144.970244 216.516828 
L 145.3409 216.31404 
L 145.711555 216.108973 
L 146.082211 215.901594 
L 146.452867 215.69187 
L 146.823522 215.479768 
L 147.194178 215.265255 
L 147.564834 215.048294 
L 147.935489 214.828851 
L 148.306145 214.60689 
L 148.676801 214.382374 
L 149.047456 214.155267 
L 149.418112 213.92553 
L 149.788768 213.693126 
L 150.159423 213.458016 
L 150.530079 213.220159 
L 150.900734 212.979515 
L 151.27139 212.736044 
L 151.642046 212.489703 
L 152.012701 212.240451 
L 152.383357 211.988244 
L 152.754013 211.733038 
L 153.124668 211.474789 
L 153.495324 211.213451 
L 153.86598 210.948979 
L 154.236635 210.681324 
L 154.607291 210.41044 
L 154.977947 210.136278 
L 155.348602 209.858788 
L 155.719258 209.57792 
L 156.089914 209.293624 
L 156.460569 209.005847 
L 156.831225 208.714536 
L 157.201881 208.419637 
L 157.572536 208.121096 
L 157.943192 207.818857 
L 158.313848 207.512864 
L 158.684503 207.203059 
L 159.055159 206.889383 
L 159.425815 206.571777 
L 159.79647 206.25018 
L 160.167126 205.92453 
L 160.537782 205.594766 
L 160.908437 205.260822 
L 161.279093 204.922635 
L 161.649748 204.580138 
L 162.020404 204.233264 
L 162.39106 203.881945 
L 162.761715 203.526111 
L 163.132371 203.165693 
L 163.503027 202.800617 
L 163.873682 202.430812 
L 164.244338 202.056202 
L 164.614994 201.676712 
L 164.985649 201.292266 
L 165.356305 200.902786 
L 165.726961 200.508191 
L 166.097616 200.108402 
L 166.468272 199.703335 
L 166.838928 199.292909 
L 167.209583 198.877037 
L 167.580239 198.455634 
L 167.950895 198.028611 
L 168.32155 197.59588 
L 168.692206 197.157351 
L 169.062862 196.71293 
L 169.433517 196.262525 
L 169.804173 195.80604 
L 170.174829 195.343378 
L 170.545484 194.874442 
L 170.91614 194.399132 
L 171.286796 193.917346 
L 171.657451 193.428982 
L 172.028107 192.933934 
L 172.398763 192.432097 
L 172.769418 191.923363 
L 173.140074 191.407623 
L 173.510729 190.884764 
L 173.881385 190.354676 
L 174.252041 189.817242 
L 174.622696 189.272348 
L 174.993352 188.719874 
L 175.364008 188.159702 
L 175.734663 187.591711 
L 176.105319 187.015776 
L 176.475975 186.431775 
L 176.84663 185.83958 
L 177.217286 185.239064 
L 177.587942 184.630096 
L 177.958597 184.012545 
L 178.329253 183.386279 
L 178.699909 182.751163 
L 179.070564 182.10706 
L 179.44122 181.453832 
L 179.811876 180.79134 
L 180.182531 180.119442 
L 180.553187 179.437997 
L 180.923843 178.746859 
L 181.294498 178.045884 
L 181.665154 177.334924 
L 182.03581 176.613831 
L 182.406465 175.882455 
L 182.406465 172.519717 
L 182.406465 172.519717 
L 182.03581 173.779406 
L 181.665154 175.026128 
L 181.294498 176.259762 
L 180.923843 177.480196 
L 180.553187 178.687322 
L 180.182531 179.881044 
L 179.811876 181.061272 
L 179.44122 182.227922 
L 179.070564 183.380919 
L 178.699909 184.520195 
L 178.329253 185.645689 
L 177.958597 186.757348 
L 177.587942 187.855125 
L 177.217286 188.938979 
L 176.84663 190.008877 
L 176.475975 191.064793 
L 176.105319 192.106708 
L 175.734663 193.134606 
L 175.364008 194.148481 
L 174.993352 195.148332 
L 174.622696 196.134163 
L 174.252041 197.105985 
L 173.881385 198.063816 
L 173.510729 199.007676 
L 173.140074 199.937594 
L 172.769418 200.853602 
L 172.398763 201.755739 
L 172.028107 202.644049 
L 171.657451 203.51858 
L 171.286796 204.379384 
L 170.91614 205.226521 
L 170.545484 206.060051 
L 170.174829 206.880043 
L 169.804173 207.686568 
L 169.433517 208.4797 
L 169.062862 209.25952 
L 168.692206 210.026111 
L 168.32155 210.779558 
L 167.950895 211.519954 
L 167.580239 212.247393 
L 167.209583 212.96197 
L 166.838928 213.663788 
L 166.468272 214.35295 
L 166.097616 215.029563 
L 165.726961 215.693735 
L 165.356305 216.34558 
L 164.985649 216.985211 
L 164.614994 217.612746 
L 164.244338 218.228304 
L 163.873682 218.832007 
L 163.503027 219.423978 
L 163.132371 220.004343 
L 162.761715 220.573229 
L 162.39106 221.130765 
L 162.020404 221.677082 
L 161.649748 222.212311 
L 161.279093 222.736586 
L 160.908437 223.250042 
L 160.537782 223.752814 
L 160.167126 224.245039 
L 159.79647 224.726854 
L 159.425815 225.198399 
L 159.055159 225.659812 
L 158.684503 226.111233 
L 158.313848 226.552803 
L 157.943192 226.984661 
L 157.572536 227.40695 
L 157.201881 227.81981 
L 156.831225 228.223383 
L 156.460569 228.61781 
L 156.089914 229.003234 
L 155.719258 229.379794 
L 155.348602 229.747633 
L 154.977947 230.106892 
L 154.607291 230.45771 
L 154.236635 230.80023 
L 153.86598 231.134589 
L 153.495324 231.460928 
L 153.124668 231.779385 
L 152.754013 232.090099 
L 152.383357 232.393207 
L 152.012701 232.688844 
L 151.642046 232.977148 
L 151.27139 233.258253 
L 150.900734 233.532292 
L 150.530079 233.799399 
L 150.159423 234.059706 
L 149.788768 234.313344 
L 149.418112 234.560442 
L 149.047456 234.801129 
L 148.676801 235.035533 
L 148.306145 235.263779 
L 147.935489 235.485993 
L 147.564834 235.702298 
L 147.194178 235.912817 
L 146.823522 236.117671 
L 146.452867 236.316979 
L 146.082211 236.510859 
L 145.711555 236.699429 
L 145.3409 236.882803 
L 144.970244 237.061096 
L 144.599588 237.23442 
L 144.228933 237.402886 
L 143.858277 237.566603 
L 143.487621 237.725679 
L 143.116966 237.88022 
L 142.74631 238.030332 
L 142.375654 238.176117 
L 142.004999 238.317677 
L 141.634343 238.455113 
L 141.263687 238.588522 
L 140.893032 238.718002 
L 140.522376 238.843648 
L 140.15172 238.965554 
L 139.781065 239.083812 
L 139.410409 239.198513 
L 139.039754 239.309745 
L 138.669098 239.417597 
L 138.298442 239.522153 
L 137.927787 239.623499 
L 137.557131 239.721717 
L 137.186475 239.816889 
L 136.81582 239.909093 
L 136.445164 239.998409 
L 136.074508 240.084913 
L 135.703853 240.16868 
L 135.333197 240.249783 
L 134.962541 240.328295 
L 134.591886 240.404287 
L 134.22123 240.477827 
L 133.850574 240.548983 
L 133.479919 240.617821 
L 133.109263 240.684408 
L 132.738607 240.748805 
L 132.367952 240.811074 
L 131.997296 240.871278 
L 131.62664 240.929474 
L 131.255985 240.985721 
L 130.885329 241.040076 
L 130.514673 241.092594 
L 130.144018 241.143328 
L 129.773362 241.192333 
L 129.402706 241.239658 
L 129.032051 241.285355 
L 128.661395 241.329473 
L 128.290739 241.372059 
L 127.920084 241.41316 
L 127.549428 241.452822 
L 127.178773 241.491088 
L 126.808117 241.528003 
L 126.437461 241.563609 
L 126.066806 241.597945 
L 125.69615 241.631054 
L 125.325494 241.662972 
L 124.954839 241.693739 
L 124.584183 241.723391 
L 124.213527 241.751964 
L 123.842872 241.779493 
L 123.472216 241.806012 
L 123.10156 241.831554 
L 122.730905 241.856152 
L 122.360249 241.879836 
L 121.989593 241.902636 
L 121.618938 241.924583 
L 121.248282 241.945705 
L 120.877626 241.96603 
L 120.506971 241.985585 
L 120.136315 242.004395 
L 119.765659 242.022487 
L 119.395004 242.039886 
L 119.024348 242.056615 
L 118.653692 242.072697 
L 118.283037 242.088156 
L 117.912381 242.103012 
L 117.541725 242.117288 
L 117.17107 242.131004 
L 116.800414 242.144179 
L 116.429759 242.156834 
L 116.059103 242.168986 
L 115.688447 242.180654 
L 115.317792 242.191856 
L 114.947136 242.202608 
L 114.57648 242.212927 
L 114.205825 242.222828 
L 113.835169 242.232328 
L 113.464513 242.241441 
L 113.093858 242.250182 
L 112.723202 242.258564 
L 112.352546 242.266601 
L 111.981891 242.274305 
L 111.611235 242.28169 
L 111.240579 242.288768 
L 110.869924 242.295551 
L 110.499268 242.302049 
L 110.128612 242.308273 
L 109.757957 242.314235 
L 109.387301 242.319945 
L 109.016645 242.325412 
L 108.64599 242.330645 
L 108.275334 242.335655 
L 107.904678 242.34045 
L 107.534023 242.345037 
L 107.163367 242.349427 
L 106.792711 242.353626 
L 106.422056 242.357642 
L 106.0514 242.361483 
L 105.680744 242.365156 
L 105.310089 242.368667 
L 104.939433 242.372023 
L 104.568778 242.375231 
L 104.198122 242.378296 
L 103.827466 242.381225 
L 103.456811 242.384022 
L 103.086155 242.386694 
L 102.715499 242.389246 
L 102.344844 242.391683 
L 101.974188 242.39401 
L 101.603532 242.39623 
L 101.232877 242.39835 
L 100.862221 242.400372 
L 100.491565 242.402302 
L 100.12091 242.404143 
L 99.750254 242.405899 
L 99.379598 242.407574 
L 99.008943 242.409171 
L 98.638287 242.410693 
L 98.267631 242.412144 
L 97.896976 242.413528 
L 97.52632 242.414846 
L 97.155664 242.416102 
L 96.785009 242.417299 
L 96.414353 242.418438 
L 96.043697 242.419524 
L 95.673042 242.420557 
L 95.302386 242.421542 
L 94.93173 242.422478 
L 94.561075 242.42337 
L 94.190419 242.424219 
L 93.819764 242.425026 
L 93.449108 242.425794 
L 93.078452 242.426525 
L 92.707797 242.42722 
L 92.337141 242.427881 
L 91.966485 242.428509 
L 91.59583 242.429107 
L 91.225174 242.429675 
L 90.854518 242.430214 
L 90.483863 242.430727 
L 90.113207 242.431214 
L 89.742551 242.431677 
L 89.371896 242.432116 
L 89.00124 242.432534 
L 88.630584 242.43293 
L 88.259929 242.433306 
L 87.889273 242.433663 
L 87.518617 242.434002 
L 87.147962 242.434324 
L 86.777306 242.434629 
L 86.40665 242.434919 
L 86.035995 242.435193 
L 85.665339 242.435454 
L 85.294683 242.435701 
L 84.924028 242.435935 
L 84.553372 242.436156 
L 84.182716 242.436367 
L 83.812061 242.436566 
L 83.441405 242.436755 
L 83.070749 242.436934 
L 82.700094 242.437103 
L 82.329438 242.437264 
L 81.958783 242.437416 
L 81.588127 242.43756 
L 81.217471 242.437696 
L 80.846816 242.437825 
L 80.47616 242.437947 
L 80.105504 242.438062 
L 79.734849 242.438171 
L 79.364193 242.438275 
L 78.993537 242.438372 
L 78.622882 242.438465 
L 78.252226 242.438552 
L 77.88157 242.438635 
L 77.510915 242.438713 
L 77.140259 242.438786 
L 76.769603 242.438856 
L 76.398948 242.438922 
L 76.028292 242.438984 
L 75.657636 242.439043 
L 75.286981 242.439099 
L 74.916325 242.439151 
L 74.545669 242.4392 
L 74.175014 242.439247 
L 73.804358 242.439291 
L 73.433702 242.439333 
L 73.063047 242.439372 
L 72.692391 242.439409 
L 72.321735 242.439444 
L 71.95108 242.439477 
L 71.580424 242.439508 
L 71.209769 242.439537 
L 70.839113 242.439565 
L 70.468457 242.439591 
L 70.097802 242.439615 
L 69.727146 242.439638 
L 69.35649 242.43966 
L 68.985835 242.439681 
L 68.615179 242.4397 
L 68.244523 242.439718 
L 67.873868 242.439735 
L 67.503212 242.439751 
L 67.132556 242.439766 
L 66.761901 242.439781 
L 66.391245 242.439794 
L 66.020589 242.439807 
L 65.649934 242.439819 
L 65.279278 242.43983 
L 64.908622 242.43984 
L 64.537967 242.43985 
L 64.167311 242.43986 
L 63.796655 242.439868 
L 63.426 242.439876 
L 63.055344 242.439884 
L 62.684688 242.439891 
L 62.314033 242.439898 
L 61.943377 242.439905 
L 61.572721 242.439911 
L 61.202066 242.439916 
L 60.83141 242.439922 
L 60.460755 242.439927 
L 60.090099 242.439931 
L 59.719443 242.439936 
L 59.348788 242.43994 
L 58.978132 242.439944 
L 58.607476 242.439947 
L 58.236821 242.439951 
L 57.866165 242.439954 
L 57.495509 242.439957 
L 57.124854 242.43996 
L 56.754198 242.439962 
L 56.383542 242.439965 
L 56.012887 242.439967 
L 55.642231 242.439969 
L 55.271575 242.439971 
L 54.90092 242.439973 
L 54.530264 242.439975 
L 54.159608 242.439976 
L 53.788953 242.439978 
L 53.418297 242.439979 
L 53.047641 242.439981 
L 52.676986 242.439982 
L 52.30633 242.439983 
L 51.935674 242.439984 
L 51.565019 242.439985 
L 51.194363 242.439986 
L 50.823707 242.439987 
L 50.453052 242.439988 
L 50.082396 242.439989 
L 49.71174 242.43999 
L 49.341085 242.43999 
L 48.970429 242.439991 
L 48.599774 242.439992 
L 48.229118 242.439992 
L 47.858462 242.439993 
L 47.487807 242.439993 
L 47.117151 242.439994 
L 46.746495 242.439994 
L 46.37584 242.439995 
L 46.005184 242.439995 
L 45.634528 242.439995 
L 45.263873 242.439996 
L 44.893217 242.439996 
L 44.522561 242.439996 
L 44.151906 242.439996 
L 43.78125 242.439997 
z
" clip-path="url(#p08dcf7724f)" style="fill: #e08a1e; fill-opacity: 0.12; stroke: #e08a1e; stroke-opacity: 0.12"/>
    <path d="M 275.441035 172.519717 
L 275.441035 175.882455 
L 275.81169 176.613831 
L 276.182346 177.334924 
L 276.553002 178.045884 
L 276.923657 178.746859 
L 277.294313 179.437997 
L 277.664969 180.119442 
L 278.035624 180.79134 
L 278.40628 181.453832 
L 278.776936 182.10706 
L 279.147591 182.751163 
L 279.518247 183.386279 
L 279.888903 184.012545 
L 280.259558 184.630096 
L 280.630214 185.239064 
L 281.00087 185.83958 
L 281.371525 186.431775 
L 281.742181 187.015776 
L 282.112837 187.591711 
L 282.483492 188.159702 
L 282.854148 188.719874 
L 283.224804 189.272348 
L 283.595459 189.817242 
L 283.966115 190.354676 
L 284.336771 190.884764 
L 284.707426 191.407623 
L 285.078082 191.923363 
L 285.448737 192.432097 
L 285.819393 192.933934 
L 286.190049 193.428982 
L 286.560704 193.917346 
L 286.93136 194.399132 
L 287.302016 194.874442 
L 287.672671 195.343378 
L 288.043327 195.80604 
L 288.413983 196.262525 
L 288.784638 196.71293 
L 289.155294 197.157351 
L 289.52595 197.59588 
L 289.896605 198.028611 
L 290.267261 198.455634 
L 290.637917 198.877037 
L 291.008572 199.292909 
L 291.379228 199.703335 
L 291.749884 200.108402 
L 292.120539 200.508191 
L 292.491195 200.902786 
L 292.861851 201.292266 
L 293.232506 201.676712 
L 293.603162 202.056202 
L 293.973818 202.430812 
L 294.344473 202.800617 
L 294.715129 203.165693 
L 295.085785 203.526111 
L 295.45644 203.881945 
L 295.827096 204.233264 
L 296.197752 204.580138 
L 296.568407 204.922635 
L 296.939063 205.260822 
L 297.309718 205.594766 
L 297.680374 205.92453 
L 298.05103 206.25018 
L 298.421685 206.571777 
L 298.792341 206.889383 
L 299.162997 207.203059 
L 299.533652 207.512864 
L 299.904308 207.818857 
L 300.274964 208.121096 
L 300.645619 208.419637 
L 301.016275 208.714536 
L 301.386931 209.005847 
L 301.757586 209.293624 
L 302.128242 209.57792 
L 302.498898 209.858788 
L 302.869553 210.136278 
L 303.240209 210.41044 
L 303.610865 210.681324 
L 303.98152 210.948979 
L 304.352176 211.213451 
L 304.722832 211.474789 
L 305.093487 211.733038 
L 305.464143 211.988244 
L 305.834799 212.240451 
L 306.205454 212.489703 
L 306.57611 212.736044 
L 306.946766 212.979515 
L 307.317421 213.220159 
L 307.688077 213.458016 
L 308.058732 213.693126 
L 308.429388 213.92553 
L 308.800044 214.155267 
L 309.170699 214.382374 
L 309.541355 214.60689 
L 309.912011 214.828851 
L 310.282666 215.048294 
L 310.653322 215.265255 
L 311.023978 215.479768 
L 311.394633 215.69187 
L 311.765289 215.901594 
L 312.135945 216.108973 
L 312.5066 216.31404 
L 312.877256 216.516828 
L 313.247912 216.71737 
L 313.618567 216.915695 
L 313.989223 217.111835 
L 314.359879 217.305821 
L 314.730534 217.497683 
L 315.10119 217.687449 
L 315.471846 217.875149 
L 315.842501 218.060811 
L 316.213157 218.244463 
L 316.583813 218.426133 
L 316.954468 218.605848 
L 317.325124 218.783635 
L 317.69578 218.959519 
L 318.066435 219.133527 
L 318.437091 219.305684 
L 318.807746 219.476015 
L 319.178402 219.644544 
L 319.549058 219.811297 
L 319.919713 219.976296 
L 320.290369 220.139565 
L 320.661025 220.301127 
L 321.03168 220.461005 
L 321.402336 220.619221 
L 321.772992 220.775798 
L 322.143647 220.930757 
L 322.514303 221.084119 
L 322.884959 221.235905 
L 323.255614 221.386136 
L 323.62627 221.534832 
L 323.996926 221.682013 
L 324.367581 221.827699 
L 324.738237 221.97191 
L 325.108893 222.114664 
L 325.479548 222.255981 
L 325.850204 222.395878 
L 326.22086 222.534375 
L 326.591515 222.671488 
L 326.962171 222.807236 
L 327.332827 222.941636 
L 327.703482 223.074705 
L 328.074138 223.206461 
L 328.444794 223.336919 
L 328.815449 223.466096 
L 329.186105 223.594009 
L 329.556761 223.720673 
L 329.927416 223.846104 
L 330.298072 223.970316 
L 330.668727 224.093327 
L 331.039383 224.215149 
L 331.410039 224.335799 
L 331.780694 224.455291 
L 332.15135 224.573638 
L 332.522006 224.690855 
L 332.892661 224.806956 
L 333.263317 224.921955 
L 333.633973 225.035865 
L 334.004628 225.148699 
L 334.375284 225.260471 
L 334.74594 225.371193 
L 335.116595 225.480878 
L 335.487251 225.589538 
L 335.857907 225.697186 
L 336.228562 225.803834 
L 336.599218 225.909495 
L 336.969874 226.014179 
L 337.340529 226.117898 
L 337.711185 226.220664 
L 338.081841 226.322489 
L 338.452496 226.423383 
L 338.823152 226.523357 
L 339.193808 226.622422 
L 339.564463 226.72059 
L 339.935119 226.817869 
L 340.305775 226.914272 
L 340.67643 227.009807 
L 341.047086 227.104485 
L 341.417741 227.198317 
L 341.788397 227.291311 
L 342.159053 227.383477 
L 342.529708 227.474826 
L 342.900364 227.565366 
L 343.27102 227.655107 
L 343.641675 227.744057 
L 344.012331 227.832226 
L 344.382987 227.919623 
L 344.753642 228.006257 
L 345.124298 228.092135 
L 345.494954 228.177268 
L 345.865609 228.261662 
L 346.236265 228.345326 
L 346.606921 228.428269 
L 346.977576 228.510499 
L 347.348232 228.592023 
L 347.718888 228.67285 
L 348.089543 228.752987 
L 348.460199 228.832441 
L 348.830855 228.911221 
L 349.20151 228.989334 
L 349.572166 229.066787 
L 349.942822 229.143587 
L 350.313477 229.219741 
L 350.684133 229.295258 
L 351.054789 229.370142 
L 351.425444 229.444402 
L 351.7961 229.518044 
L 352.166756 229.591075 
L 352.537411 229.663502 
L 352.908067 229.73533 
L 353.278722 229.806567 
L 353.649378 229.877218 
L 354.020034 229.947291 
L 354.390689 230.01679 
L 354.761345 230.085723 
L 355.132001 230.154095 
L 355.502656 230.221912 
L 355.873312 230.28918 
L 356.243968 230.355905 
L 356.614623 230.422092 
L 356.985279 230.487748 
L 357.355935 230.552877 
L 357.72659 230.617486 
L 358.097246 230.681579 
L 358.467902 230.745162 
L 358.838557 230.808241 
L 359.209213 230.87082 
L 359.579869 230.932904 
L 359.950524 230.9945 
L 360.32118 231.055611 
L 360.691836 231.116243 
L 361.062491 231.176401 
L 361.433147 231.23609 
L 361.803803 231.295313 
L 362.174458 231.354077 
L 362.545114 231.412385 
L 362.91577 231.470242 
L 363.286425 231.527654 
L 363.657081 231.584623 
L 364.027736 231.641156 
L 364.398392 231.697255 
L 364.769048 231.752927 
L 365.139703 231.808173 
L 365.510359 231.863 
L 365.881015 231.917411 
L 366.25167 231.97141 
L 366.622326 232.025001 
L 366.992982 232.078189 
L 367.363637 232.130977 
L 367.734293 232.18337 
L 368.104949 232.23537 
L 368.475604 232.286983 
L 368.84626 232.338211 
L 369.216916 232.389058 
L 369.587571 232.439529 
L 369.958227 232.489627 
L 370.328883 232.539355 
L 370.699538 232.588717 
L 371.070194 232.637717 
L 371.44085 232.686357 
L 371.811505 232.734643 
L 372.182161 232.782575 
L 372.552817 232.83016 
L 372.923472 232.877398 
L 373.294128 232.924295 
L 373.664784 232.970853 
L 374.035439 233.017074 
L 374.406095 233.062964 
L 374.776751 233.108524 
L 375.147406 233.153757 
L 375.518062 233.198667 
L 375.888717 233.243257 
L 376.259373 233.28753 
L 376.630029 233.331489 
L 377.000684 233.375136 
L 377.37134 233.418475 
L 377.741996 233.461508 
L 378.112651 233.504238 
L 378.483307 233.546668 
L 378.853963 233.588801 
L 379.224618 233.630639 
L 379.595274 233.672186 
L 379.96593 233.713444 
L 380.336585 233.754415 
L 380.707241 233.795102 
L 381.077897 233.835507 
L 381.448552 233.875634 
L 381.819208 233.915485 
L 382.189864 233.955062 
L 382.560519 233.994368 
L 382.931175 234.033404 
L 383.301831 234.072175 
L 383.672486 234.110681 
L 384.043142 234.148926 
L 384.413798 234.186911 
L 384.784453 234.224639 
L 385.155109 234.262113 
L 385.525765 234.299334 
L 385.89642 234.336305 
L 386.267076 234.373027 
L 386.637731 234.409504 
L 387.008387 234.445737 
L 387.379043 234.481728 
L 387.749698 234.51748 
L 388.120354 234.552995 
L 388.49101 234.588274 
L 388.861665 234.62332 
L 389.232321 234.658135 
L 389.602977 234.692721 
L 389.973632 234.727079 
L 390.344288 234.761212 
L 390.714944 234.795122 
L 391.085599 234.82881 
L 391.456255 234.862279 
L 391.826911 234.89553 
L 392.197566 234.928565 
L 392.568222 234.961386 
L 392.938878 234.993996 
L 393.309533 235.026395 
L 393.680189 235.058585 
L 394.050845 235.090569 
L 394.4215 235.122347 
L 394.792156 235.153922 
L 395.162812 235.185296 
L 395.533467 235.21647 
L 395.904123 235.247445 
L 396.274779 235.278224 
L 396.645434 235.308809 
L 397.01609 235.339199 
L 397.386745 235.369398 
L 397.757401 235.399407 
L 398.128057 235.429228 
L 398.498712 235.458861 
L 398.869368 235.488309 
L 399.240024 235.517573 
L 399.610679 235.546655 
L 399.981335 235.575556 
L 400.351991 235.604277 
L 400.722646 235.632821 
L 401.093302 235.661188 
L 401.463958 235.68938 
L 401.834613 235.717398 
L 402.205269 235.745244 
L 402.575925 235.772919 
L 402.94658 235.800425 
L 403.317236 235.827763 
L 403.687892 235.854933 
L 404.058547 235.881939 
L 404.429203 235.90878 
L 404.799859 235.935459 
L 405.170514 235.961976 
L 405.54117 235.988333 
L 405.911826 236.014531 
L 406.282481 236.040571 
L 406.653137 236.066456 
L 407.023793 236.092184 
L 407.394448 236.117759 
L 407.765104 236.143182 
L 408.13576 236.168452 
L 408.506415 236.193573 
L 408.877071 236.218544 
L 409.247726 236.243367 
L 409.618382 236.268043 
L 409.989038 236.292574 
L 410.359693 236.31696 
L 410.730349 236.341203 
L 411.101005 236.365303 
L 411.47166 236.389263 
L 411.842316 236.413082 
L 412.212972 236.436762 
L 412.583627 236.460304 
L 412.954283 236.483709 
L 413.324939 236.506978 
L 413.695594 236.530112 
L 414.06625 236.553113 
L 414.06625 242.439997 
L 414.06625 242.439997 
L 413.695594 242.439996 
L 413.324939 242.439996 
L 412.954283 242.439996 
L 412.583627 242.439996 
L 412.212972 242.439995 
L 411.842316 242.439995 
L 411.47166 242.439995 
L 411.101005 242.439994 
L 410.730349 242.439994 
L 410.359693 242.439993 
L 409.989038 242.439993 
L 409.618382 242.439992 
L 409.247726 242.439992 
L 408.877071 242.439991 
L 408.506415 242.43999 
L 408.13576 242.43999 
L 407.765104 242.439989 
L 407.394448 242.439988 
L 407.023793 242.439987 
L 406.653137 242.439986 
L 406.282481 242.439985 
L 405.911826 242.439984 
L 405.54117 242.439983 
L 405.170514 242.439982 
L 404.799859 242.439981 
L 404.429203 242.439979 
L 404.058547 242.439978 
L 403.687892 242.439976 
L 403.317236 242.439975 
L 402.94658 242.439973 
L 402.575925 242.439971 
L 402.205269 242.439969 
L 401.834613 242.439967 
L 401.463958 242.439965 
L 401.093302 242.439962 
L 400.722646 242.43996 
L 400.351991 242.439957 
L 399.981335 242.439954 
L 399.610679 242.439951 
L 399.240024 242.439947 
L 398.869368 242.439944 
L 398.498712 242.43994 
L 398.128057 242.439936 
L 397.757401 242.439931 
L 397.386745 242.439927 
L 397.01609 242.439922 
L 396.645434 242.439916 
L 396.274779 242.439911 
L 395.904123 242.439905 
L 395.533467 242.439898 
L 395.162812 242.439891 
L 394.792156 242.439884 
L 394.4215 242.439876 
L 394.050845 242.439868 
L 393.680189 242.43986 
L 393.309533 242.43985 
L 392.938878 242.43984 
L 392.568222 242.43983 
L 392.197566 242.439819 
L 391.826911 242.439807 
L 391.456255 242.439794 
L 391.085599 242.439781 
L 390.714944 242.439766 
L 390.344288 242.439751 
L 389.973632 242.439735 
L 389.602977 242.439718 
L 389.232321 242.4397 
L 388.861665 242.439681 
L 388.49101 242.43966 
L 388.120354 242.439638 
L 387.749698 242.439615 
L 387.379043 242.439591 
L 387.008387 242.439565 
L 386.637731 242.439537 
L 386.267076 242.439508 
L 385.89642 242.439477 
L 385.525765 242.439444 
L 385.155109 242.439409 
L 384.784453 242.439372 
L 384.413798 242.439333 
L 384.043142 242.439291 
L 383.672486 242.439247 
L 383.301831 242.4392 
L 382.931175 242.439151 
L 382.560519 242.439099 
L 382.189864 242.439043 
L 381.819208 242.438984 
L 381.448552 242.438922 
L 381.077897 242.438856 
L 380.707241 242.438786 
L 380.336585 242.438713 
L 379.96593 242.438635 
L 379.595274 242.438552 
L 379.224618 242.438465 
L 378.853963 242.438372 
L 378.483307 242.438275 
L 378.112651 242.438171 
L 377.741996 242.438062 
L 377.37134 242.437947 
L 377.000684 242.437825 
L 376.630029 242.437696 
L 376.259373 242.43756 
L 375.888717 242.437416 
L 375.518062 242.437264 
L 375.147406 242.437103 
L 374.776751 242.436934 
L 374.406095 242.436755 
L 374.035439 242.436566 
L 373.664784 242.436367 
L 373.294128 242.436156 
L 372.923472 242.435935 
L 372.552817 242.435701 
L 372.182161 242.435454 
L 371.811505 242.435193 
L 371.44085 242.434919 
L 371.070194 242.434629 
L 370.699538 242.434324 
L 370.328883 242.434002 
L 369.958227 242.433663 
L 369.587571 242.433306 
L 369.216916 242.43293 
L 368.84626 242.432534 
L 368.475604 242.432116 
L 368.104949 242.431677 
L 367.734293 242.431214 
L 367.363637 242.430727 
L 366.992982 242.430214 
L 366.622326 242.429675 
L 366.25167 242.429107 
L 365.881015 242.428509 
L 365.510359 242.427881 
L 365.139703 242.42722 
L 364.769048 242.426525 
L 364.398392 242.425794 
L 364.027736 242.425026 
L 363.657081 242.424219 
L 363.286425 242.42337 
L 362.91577 242.422478 
L 362.545114 242.421542 
L 362.174458 242.420557 
L 361.803803 242.419524 
L 361.433147 242.418438 
L 361.062491 242.417299 
L 360.691836 242.416102 
L 360.32118 242.414846 
L 359.950524 242.413528 
L 359.579869 242.412144 
L 359.209213 242.410693 
L 358.838557 242.409171 
L 358.467902 242.407574 
L 358.097246 242.405899 
L 357.72659 242.404143 
L 357.355935 242.402302 
L 356.985279 242.400372 
L 356.614623 242.39835 
L 356.243968 242.39623 
L 355.873312 242.39401 
L 355.502656 242.391683 
L 355.132001 242.389246 
L 354.761345 242.386694 
L 354.390689 242.384022 
L 354.020034 242.381225 
L 353.649378 242.378296 
L 353.278722 242.375231 
L 352.908067 242.372023 
L 352.537411 242.368667 
L 352.166756 242.365156 
L 351.7961 242.361483 
L 351.425444 242.357642 
L 351.054789 242.353626 
L 350.684133 242.349427 
L 350.313477 242.345037 
L 349.942822 242.34045 
L 349.572166 242.335655 
L 349.20151 242.330645 
L 348.830855 242.325412 
L 348.460199 242.319945 
L 348.089543 242.314235 
L 347.718888 242.308273 
L 347.348232 242.302049 
L 346.977576 242.295551 
L 346.606921 242.288768 
L 346.236265 242.28169 
L 345.865609 242.274305 
L 345.494954 242.266601 
L 345.124298 242.258564 
L 344.753642 242.250182 
L 344.382987 242.241441 
L 344.012331 242.232328 
L 343.641675 242.222828 
L 343.27102 242.212927 
L 342.900364 242.202608 
L 342.529708 242.191856 
L 342.159053 242.180654 
L 341.788397 242.168986 
L 341.417741 242.156834 
L 341.047086 242.144179 
L 340.67643 242.131004 
L 340.305775 242.117288 
L 339.935119 242.103012 
L 339.564463 242.088156 
L 339.193808 242.072697 
L 338.823152 242.056615 
L 338.452496 242.039886 
L 338.081841 242.022487 
L 337.711185 242.004395 
L 337.340529 241.985585 
L 336.969874 241.96603 
L 336.599218 241.945705 
L 336.228562 241.924583 
L 335.857907 241.902636 
L 335.487251 241.879836 
L 335.116595 241.856152 
L 334.74594 241.831554 
L 334.375284 241.806012 
L 334.004628 241.779493 
L 333.633973 241.751964 
L 333.263317 241.723391 
L 332.892661 241.693739 
L 332.522006 241.662972 
L 332.15135 241.631054 
L 331.780694 241.597945 
L 331.410039 241.563609 
L 331.039383 241.528003 
L 330.668727 241.491088 
L 330.298072 241.452822 
L 329.927416 241.41316 
L 329.556761 241.372059 
L 329.186105 241.329473 
L 328.815449 241.285355 
L 328.444794 241.239658 
L 328.074138 241.192333 
L 327.703482 241.143328 
L 327.332827 241.092594 
L 326.962171 241.040076 
L 326.591515 240.985721 
L 326.22086 240.929474 
L 325.850204 240.871278 
L 325.479548 240.811074 
L 325.108893 240.748805 
L 324.738237 240.684408 
L 324.367581 240.617821 
L 323.996926 240.548983 
L 323.62627 240.477827 
L 323.255614 240.404287 
L 322.884959 240.328295 
L 322.514303 240.249783 
L 322.143647 240.16868 
L 321.772992 240.084913 
L 321.402336 239.998409 
L 321.03168 239.909093 
L 320.661025 239.816889 
L 320.290369 239.721717 
L 319.919713 239.623499 
L 319.549058 239.522153 
L 319.178402 239.417597 
L 318.807746 239.309745 
L 318.437091 239.198513 
L 318.066435 239.083812 
L 317.69578 238.965554 
L 317.325124 238.843648 
L 316.954468 238.718002 
L 316.583813 238.588522 
L 316.213157 238.455113 
L 315.842501 238.317677 
L 315.471846 238.176117 
L 315.10119 238.030332 
L 314.730534 237.88022 
L 314.359879 237.725679 
L 313.989223 237.566603 
L 313.618567 237.402886 
L 313.247912 237.23442 
L 312.877256 237.061096 
L 312.5066 236.882803 
L 312.135945 236.699429 
L 311.765289 236.510859 
L 311.394633 236.316979 
L 311.023978 236.117671 
L 310.653322 235.912817 
L 310.282666 235.702298 
L 309.912011 235.485993 
L 309.541355 235.263779 
L 309.170699 235.035533 
L 308.800044 234.801129 
L 308.429388 234.560442 
L 308.058732 234.313344 
L 307.688077 234.059706 
L 307.317421 233.799399 
L 306.946766 233.532292 
L 306.57611 233.258253 
L 306.205454 232.977148 
L 305.834799 232.688844 
L 305.464143 232.393207 
L 305.093487 232.090099 
L 304.722832 231.779385 
L 304.352176 231.460928 
L 303.98152 231.134589 
L 303.610865 230.80023 
L 303.240209 230.45771 
L 302.869553 230.106892 
L 302.498898 229.747633 
L 302.128242 229.379794 
L 301.757586 229.003234 
L 301.386931 228.61781 
L 301.016275 228.223383 
L 300.645619 227.81981 
L 300.274964 227.40695 
L 299.904308 226.984661 
L 299.533652 226.552803 
L 299.162997 226.111233 
L 298.792341 225.659812 
L 298.421685 225.198399 
L 298.05103 224.726854 
L 297.680374 224.245039 
L 297.309718 223.752814 
L 296.939063 223.250042 
L 296.568407 222.736586 
L 296.197752 222.212311 
L 295.827096 221.677082 
L 295.45644 221.130765 
L 295.085785 220.573229 
L 294.715129 220.004343 
L 294.344473 219.423978 
L 293.973818 218.832007 
L 293.603162 218.228304 
L 293.232506 217.612746 
L 292.861851 216.985211 
L 292.491195 216.34558 
L 292.120539 215.693735 
L 291.749884 215.029563 
L 291.379228 214.35295 
L 291.008572 213.663788 
L 290.637917 212.96197 
L 290.267261 212.247393 
L 289.896605 211.519954 
L 289.52595 210.779558 
L 289.155294 210.026111 
L 288.784638 209.25952 
L 288.413983 208.4797 
L 288.043327 207.686568 
L 287.672671 206.880043 
L 287.302016 206.060051 
L 286.93136 205.226521 
L 286.560704 204.379384 
L 286.190049 203.51858 
L 285.819393 202.644049 
L 285.448737 201.755739 
L 285.078082 200.853602 
L 284.707426 199.937594 
L 284.336771 199.007676 
L 283.966115 198.063816 
L 283.595459 197.105985 
L 283.224804 196.134163 
L 282.854148 195.148332 
L 282.483492 194.148481 
L 282.112837 193.134606 
L 281.742181 192.106708 
L 281.371525 191.064793 
L 281.00087 190.008877 
L 280.630214 188.938979 
L 280.259558 187.855125 
L 279.888903 186.757348 
L 279.518247 185.645689 
L 279.147591 184.520195 
L 278.776936 183.380919 
L 278.40628 182.227922 
L 278.035624 181.061272 
L 277.664969 179.881044 
L 277.294313 178.687322 
L 276.923657 177.480196 
L 276.553002 176.259762 
L 276.182346 175.026128 
L 275.81169 173.779406 
L 275.441035 172.519717 
z
" clip-path="url(#p08dcf7724f)" style="fill: #e08a1e; fill-opacity: 0.12; stroke: #e08a1e; stroke-opacity: 0.12"/>
   </g>
   <g id="matplotlib.axis_1">
    <g id="xtick_1">
     <g id="line2d_1">
      <defs>
       <path id="mf42ffbc8de" d="M 0 0 
L 0 3.5 
" style="stroke: #000000; stroke-width: 0.8"/>
      </defs>
      <g>
       <use xlink:href="#mf42ffbc8de" x="43.78125" y="242.44" style="stroke: #000000; stroke-width: 0.8"/>
      </g>
     </g>
     <g id="text_1">
      <!-- −6 -->
      <g transform="translate(36.410156 257.038437) scale(0.1 -0.1)">
       <defs>
        <path id="DejaVuSans-2212" d="M 678 2272 
L 4684 2272 
L 4684 1741 
L 678 1741 
L 678 2272 
z
" transform="scale(0.015625)"/>
        <path id="DejaVuSans-36" d="M 2113 2584 
Q 1688 2584 1439 2293 
Q 1191 2003 1191 1497 
Q 1191 994 1439 701 
Q 1688 409 2113 409 
Q 2538 409 2786 701 
Q 3034 994 3034 1497 
Q 3034 2003 2786 2293 
Q 2538 2584 2113 2584 
z
M 3366 4563 
L 3366 3988 
Q 3128 4100 2886 4159 
Q 2644 4219 2406 4219 
Q 1781 4219 1451 3797 
Q 1122 3375 1075 2522 
Q 1259 2794 1537 2939 
Q 1816 3084 2150 3084 
Q 2853 3084 3261 2657 
Q 3669 2231 3669 1497 
Q 3669 778 3244 343 
Q 2819 -91 2113 -91 
Q 1303 -91 875 529 
Q 447 1150 447 2328 
Q 447 3434 972 4092 
Q 1497 4750 2381 4750 
Q 2619 4750 2861 4703 
Q 3103 4656 3366 4563 
z
" transform="scale(0.015625)"/>
       </defs>
       <use xlink:href="#DejaVuSans-2212"/>
       <use xlink:href="#DejaVuSans-36" transform="translate(83.789062 0)"/>
      </g>
     </g>
    </g>
    <g id="xtick_2">
     <g id="line2d_2">
      <g>
       <use xlink:href="#mf42ffbc8de" x="105.495417" y="242.44" style="stroke: #000000; stroke-width: 0.8"/>
      </g>
     </g>
     <g id="text_2">
      <!-- −4 -->
      <g transform="translate(98.124323 257.038437) scale(0.1 -0.1)">
       <defs>
        <path id="DejaVuSans-34" d="M 2419 4116 
L 825 1625 
L 2419 1625 
L 2419 4116 
z
M 2253 4666 
L 3047 4666 
L 3047 1625 
L 3713 1625 
L 3713 1100 
L 3047 1100 
L 3047 0 
L 2419 0 
L 2419 1100 
L 313 1100 
L 313 1709 
L 2253 4666 
z
" transform="scale(0.015625)"/>
       </defs>
       <use xlink:href="#DejaVuSans-2212"/>
       <use xlink:href="#DejaVuSans-34" transform="translate(83.789062 0)"/>
      </g>
     </g>
    </g>
    <g id="xtick_3">
     <g id="line2d_3">
      <g>
       <use xlink:href="#mf42ffbc8de" x="167.209583" y="242.44" style="stroke: #000000; stroke-width: 0.8"/>
      </g>
     </g>
     <g id="text_3">
      <!-- −2 -->
      <g transform="translate(159.83849 257.038437) scale(0.1 -0.1)">
       <defs>
        <path id="DejaVuSans-32" d="M 1228 531 
L 3431 531 
L 3431 0 
L 469 0 
L 469 531 
Q 828 903 1448 1529 
Q 2069 2156 2228 2338 
Q 2531 2678 2651 2914 
Q 2772 3150 2772 3378 
Q 2772 3750 2511 3984 
Q 2250 4219 1831 4219 
Q 1534 4219 1204 4116 
Q 875 4013 500 3803 
L 500 4441 
Q 881 4594 1212 4672 
Q 1544 4750 1819 4750 
Q 2544 4750 2975 4387 
Q 3406 4025 3406 3419 
Q 3406 3131 3298 2873 
Q 3191 2616 2906 2266 
Q 2828 2175 2409 1742 
Q 1991 1309 1228 531 
z
" transform="scale(0.015625)"/>
       </defs>
       <use xlink:href="#DejaVuSans-2212"/>
       <use xlink:href="#DejaVuSans-32" transform="translate(83.789062 0)"/>
      </g>
     </g>
    </g>
    <g id="xtick_4">
     <g id="line2d_4">
      <g>
       <use xlink:href="#mf42ffbc8de" x="228.92375" y="242.44" style="stroke: #000000; stroke-width: 0.8"/>
      </g>
     </g>
     <g id="text_4">
      <!-- 0 -->
      <g transform="translate(225.7425 257.038437) scale(0.1 -0.1)">
       <defs>
        <path id="DejaVuSans-30" d="M 2034 4250 
Q 1547 4250 1301 3770 
Q 1056 3291 1056 2328 
Q 1056 1369 1301 889 
Q 1547 409 2034 409 
Q 2525 409 2770 889 
Q 3016 1369 3016 2328 
Q 3016 3291 2770 3770 
Q 2525 4250 2034 4250 
z
M 2034 4750 
Q 2819 4750 3233 4129 
Q 3647 3509 3647 2328 
Q 3647 1150 3233 529 
Q 2819 -91 2034 -91 
Q 1250 -91 836 529 
Q 422 1150 422 2328 
Q 422 3509 836 4129 
Q 1250 4750 2034 4750 
z
" transform="scale(0.015625)"/>
       </defs>
       <use xlink:href="#DejaVuSans-30"/>
      </g>
     </g>
    </g>
    <g id="xtick_5">
     <g id="line2d_5">
      <g>
       <use xlink:href="#mf42ffbc8de" x="290.637917" y="242.44" style="stroke: #000000; stroke-width: 0.8"/>
      </g>
     </g>
     <g id="text_5">
      <!-- 2 -->
      <g transform="translate(287.456667 257.038437) scale(0.1 -0.1)">
       <use xlink:href="#DejaVuSans-32"/>
      </g>
     </g>
    </g>
    <g id="xtick_6">
     <g id="line2d_6">
      <g>
       <use xlink:href="#mf42ffbc8de" x="352.352083" y="242.44" style="stroke: #000000; stroke-width: 0.8"/>
      </g>
     </g>
     <g id="text_6">
      <!-- 4 -->
      <g transform="translate(349.170833 257.038437) scale(0.1 -0.1)">
       <use xlink:href="#DejaVuSans-34"/>
      </g>
     </g>
    </g>
    <g id="xtick_7">
     <g id="line2d_7">
      <g>
       <use xlink:href="#mf42ffbc8de" x="414.06625" y="242.44" style="stroke: #000000; stroke-width: 0.8"/>
      </g>
     </g>
     <g id="text_7">
      <!-- 6 -->
      <g transform="translate(410.885 257.038437) scale(0.1 -0.1)">
       <use xlink:href="#DejaVuSans-36"/>
      </g>
     </g>
    </g>
    <g id="text_8">
     <!-- Abstand -->
     <g transform="translate(208.357344 270.716562) scale(0.1 -0.1)">
      <defs>
       <path id="DejaVuSans-41" d="M 2188 4044 
L 1331 1722 
L 3047 1722 
L 2188 4044 
z
M 1831 4666 
L 2547 4666 
L 4325 0 
L 3669 0 
L 3244 1197 
L 1141 1197 
L 716 0 
L 50 0 
L 1831 4666 
z
" transform="scale(0.015625)"/>
       <path id="DejaVuSans-62" d="M 3116 1747 
Q 3116 2381 2855 2742 
Q 2594 3103 2138 3103 
Q 1681 3103 1420 2742 
Q 1159 2381 1159 1747 
Q 1159 1113 1420 752 
Q 1681 391 2138 391 
Q 2594 391 2855 752 
Q 3116 1113 3116 1747 
z
M 1159 2969 
Q 1341 3281 1617 3432 
Q 1894 3584 2278 3584 
Q 2916 3584 3314 3078 
Q 3713 2572 3713 1747 
Q 3713 922 3314 415 
Q 2916 -91 2278 -91 
Q 1894 -91 1617 61 
Q 1341 213 1159 525 
L 1159 0 
L 581 0 
L 581 4863 
L 1159 4863 
L 1159 2969 
z
" transform="scale(0.015625)"/>
       <path id="DejaVuSans-73" d="M 2834 3397 
L 2834 2853 
Q 2591 2978 2328 3040 
Q 2066 3103 1784 3103 
Q 1356 3103 1142 2972 
Q 928 2841 928 2578 
Q 928 2378 1081 2264 
Q 1234 2150 1697 2047 
L 1894 2003 
Q 2506 1872 2764 1633 
Q 3022 1394 3022 966 
Q 3022 478 2636 193 
Q 2250 -91 1575 -91 
Q 1294 -91 989 -36 
Q 684 19 347 128 
L 347 722 
Q 666 556 975 473 
Q 1284 391 1588 391 
Q 1994 391 2212 530 
Q 2431 669 2431 922 
Q 2431 1156 2273 1281 
Q 2116 1406 1581 1522 
L 1381 1569 
Q 847 1681 609 1914 
Q 372 2147 372 2553 
Q 372 3047 722 3315 
Q 1072 3584 1716 3584 
Q 2034 3584 2315 3537 
Q 2597 3491 2834 3397 
z
" transform="scale(0.015625)"/>
       <path id="DejaVuSans-74" d="M 1172 4494 
L 1172 3500 
L 2356 3500 
L 2356 3053 
L 1172 3053 
L 1172 1153 
Q 1172 725 1289 603 
Q 1406 481 1766 481 
L 2356 481 
L 2356 0 
L 1766 0 
Q 1100 0 847 248 
Q 594 497 594 1153 
L 594 3053 
L 172 3053 
L 172 3500 
L 594 3500 
L 594 4494 
L 1172 4494 
z
" transform="scale(0.015625)"/>
       <path id="DejaVuSans-61" d="M 2194 1759 
Q 1497 1759 1228 1600 
Q 959 1441 959 1056 
Q 959 750 1161 570 
Q 1363 391 1709 391 
Q 2188 391 2477 730 
Q 2766 1069 2766 1631 
L 2766 1759 
L 2194 1759 
z
M 3341 1997 
L 3341 0 
L 2766 0 
L 2766 531 
Q 2569 213 2275 61 
Q 1981 -91 1556 -91 
Q 1019 -91 701 211 
Q 384 513 384 1019 
Q 384 1609 779 1909 
Q 1175 2209 1959 2209 
L 2766 2209 
L 2766 2266 
Q 2766 2663 2505 2880 
Q 2244 3097 1772 3097 
Q 1472 3097 1187 3025 
Q 903 2953 641 2809 
L 641 3341 
Q 956 3463 1253 3523 
Q 1550 3584 1831 3584 
Q 2591 3584 2966 3190 
Q 3341 2797 3341 1997 
z
" transform="scale(0.015625)"/>
       <path id="DejaVuSans-6e" d="M 3513 2113 
L 3513 0 
L 2938 0 
L 2938 2094 
Q 2938 2591 2744 2837 
Q 2550 3084 2163 3084 
Q 1697 3084 1428 2787 
Q 1159 2491 1159 1978 
L 1159 0 
L 581 0 
L 581 3500 
L 1159 3500 
L 1159 2956 
Q 1366 3272 1645 3428 
Q 1925 3584 2291 3584 
Q 2894 3584 3203 3211 
Q 3513 2838 3513 2113 
z
" transform="scale(0.015625)"/>
       <path id="DejaVuSans-64" d="M 2906 2969 
L 2906 4863 
L 3481 4863 
L 3481 0 
L 2906 0 
L 2906 525 
Q 2725 213 2448 61 
Q 2172 -91 1784 -91 
Q 1150 -91 751 415 
Q 353 922 353 1747 
Q 353 2572 751 3078 
Q 1150 3584 1784 3584 
Q 2172 3584 2448 3432 
Q 2725 3281 2906 2969 
z
M 947 1747 
Q 947 1113 1208 752 
Q 1469 391 1925 391 
Q 2381 391 2643 752 
Q 2906 1113 2906 1747 
Q 2906 2381 2643 2742 
Q 2381 3103 1925 3103 
Q 1469 3103 1208 2742 
Q 947 2381 947 1747 
z
" transform="scale(0.015625)"/>
      </defs>
      <use xlink:href="#DejaVuSans-41"/>
      <use xlink:href="#DejaVuSans-62" transform="translate(68.408203 0)"/>
      <use xlink:href="#DejaVuSans-73" transform="translate(131.884766 0)"/>
      <use xlink:href="#DejaVuSans-74" transform="translate(183.984375 0)"/>
      <use xlink:href="#DejaVuSans-61" transform="translate(223.193359 0)"/>
      <use xlink:href="#DejaVuSans-6e" transform="translate(284.472656 0)"/>
      <use xlink:href="#DejaVuSans-64" transform="translate(347.851562 0)"/>
     </g>
    </g>
   </g>
   <g id="matplotlib.axis_2">
    <g id="ytick_1">
     <g id="line2d_8">
      <defs>
       <path id="mc546b3441f" d="M 0 0 
L -3.5 0 
" style="stroke: #000000; stroke-width: 0.8"/>
      </defs>
      <g>
       <use xlink:href="#mc546b3441f" x="43.78125" y="242.44" style="stroke: #000000; stroke-width: 0.8"/>
      </g>
     </g>
     <g id="text_9">
      <!-- 0.0 -->
      <g transform="translate(20.878125 246.239219) scale(0.1 -0.1)">
       <defs>
        <path id="DejaVuSans-2e" d="M 684 794 
L 1344 794 
L 1344 0 
L 684 0 
L 684 794 
z
" transform="scale(0.015625)"/>
       </defs>
       <use xlink:href="#DejaVuSans-30"/>
       <use xlink:href="#DejaVuSans-2e" transform="translate(63.623047 0)"/>
       <use xlink:href="#DejaVuSans-30" transform="translate(95.410156 0)"/>
      </g>
     </g>
    </g>
    <g id="ytick_2">
     <g id="line2d_9">
      <g>
       <use xlink:href="#mc546b3441f" x="43.78125" y="198.877037" style="stroke: #000000; stroke-width: 0.8"/>
      </g>
     </g>
     <g id="text_10">
      <!-- 0.2 -->
      <g transform="translate(20.878125 202.676256) scale(0.1 -0.1)">
       <use xlink:href="#DejaVuSans-30"/>
       <use xlink:href="#DejaVuSans-2e" transform="translate(63.623047 0)"/>
       <use xlink:href="#DejaVuSans-32" transform="translate(95.410156 0)"/>
      </g>
     </g>
    </g>
    <g id="ytick_3">
     <g id="line2d_10">
      <g>
       <use xlink:href="#mc546b3441f" x="43.78125" y="155.314074" style="stroke: #000000; stroke-width: 0.8"/>
      </g>
     </g>
     <g id="text_11">
      <!-- 0.4 -->
      <g transform="translate(20.878125 159.113293) scale(0.1 -0.1)">
       <use xlink:href="#DejaVuSans-30"/>
       <use xlink:href="#DejaVuSans-2e" transform="translate(63.623047 0)"/>
       <use xlink:href="#DejaVuSans-34" transform="translate(95.410156 0)"/>
      </g>
     </g>
    </g>
    <g id="ytick_4">
     <g id="line2d_11">
      <g>
       <use xlink:href="#mc546b3441f" x="43.78125" y="111.751111" style="stroke: #000000; stroke-width: 0.8"/>
      </g>
     </g>
     <g id="text_12">
      <!-- 0.6 -->
      <g transform="translate(20.878125 115.55033) scale(0.1 -0.1)">
       <use xlink:href="#DejaVuSans-30"/>
       <use xlink:href="#DejaVuSans-2e" transform="translate(63.623047 0)"/>
       <use xlink:href="#DejaVuSans-36" transform="translate(95.410156 0)"/>
      </g>
     </g>
    </g>
    <g id="ytick_5">
     <g id="line2d_12">
      <g>
       <use xlink:href="#mc546b3441f" x="43.78125" y="68.188148" style="stroke: #000000; stroke-width: 0.8"/>
      </g>
     </g>
     <g id="text_13">
      <!-- 0.8 -->
      <g transform="translate(20.878125 71.987367) scale(0.1 -0.1)">
       <defs>
        <path id="DejaVuSans-38" d="M 2034 2216 
Q 1584 2216 1326 1975 
Q 1069 1734 1069 1313 
Q 1069 891 1326 650 
Q 1584 409 2034 409 
Q 2484 409 2743 651 
Q 3003 894 3003 1313 
Q 3003 1734 2745 1975 
Q 2488 2216 2034 2216 
z
M 1403 2484 
Q 997 2584 770 2862 
Q 544 3141 544 3541 
Q 544 4100 942 4425 
Q 1341 4750 2034 4750 
Q 2731 4750 3128 4425 
Q 3525 4100 3525 3541 
Q 3525 3141 3298 2862 
Q 3072 2584 2669 2484 
Q 3125 2378 3379 2068 
Q 3634 1759 3634 1313 
Q 3634 634 3220 271 
Q 2806 -91 2034 -91 
Q 1263 -91 848 271 
Q 434 634 434 1313 
Q 434 1759 690 2068 
Q 947 2378 1403 2484 
z
M 1172 3481 
Q 1172 3119 1398 2916 
Q 1625 2713 2034 2713 
Q 2441 2713 2670 2916 
Q 2900 3119 2900 3481 
Q 2900 3844 2670 4047 
Q 2441 4250 2034 4250 
Q 1625 4250 1398 4047 
Q 1172 3844 1172 3481 
z
" transform="scale(0.015625)"/>
       </defs>
       <use xlink:href="#DejaVuSans-30"/>
       <use xlink:href="#DejaVuSans-2e" transform="translate(63.623047 0)"/>
       <use xlink:href="#DejaVuSans-38" transform="translate(95.410156 0)"/>
      </g>
     </g>
    </g>
    <g id="ytick_6">
     <g id="line2d_13">
      <g>
       <use xlink:href="#mc546b3441f" x="43.78125" y="24.625185" style="stroke: #000000; stroke-width: 0.8"/>
      </g>
     </g>
     <g id="text_14">
      <!-- 1.0 -->
      <g transform="translate(20.878125 28.424404) scale(0.1 -0.1)">
       <defs>
        <path id="DejaVuSans-31" d="M 794 531 
L 1825 531 
L 1825 4091 
L 703 3866 
L 703 4441 
L 1819 4666 
L 2450 4666 
L 2450 531 
L 3481 531 
L 3481 0 
L 794 0 
L 794 531 
z
" transform="scale(0.015625)"/>
       </defs>
       <use xlink:href="#DejaVuSans-31"/>
       <use xlink:href="#DejaVuSans-2e" transform="translate(63.623047 0)"/>
       <use xlink:href="#DejaVuSans-30" transform="translate(95.410156 0)"/>
      </g>
     </g>
    </g>
    <g id="text_15">
     <!-- Ähnlichkeit -->
     <g transform="translate(14.798438 152.41375) rotate(-90) scale(0.1 -0.1)">
      <defs>
       <path id="DejaVuSans-c4" d="M 2188 4044 
L 1331 1722 
L 3047 1722 
L 2188 4044 
z
M 1831 4666 
L 2547 4666 
L 4325 0 
L 3669 0 
L 3244 1197 
L 1141 1197 
L 716 0 
L 50 0 
L 1831 4666 
z
M 2478 5830 
L 3112 5830 
L 3112 5196 
L 2478 5196 
L 2478 5830 
z
M 1256 5830 
L 1890 5830 
L 1890 5196 
L 1256 5196 
L 1256 5830 
z
" transform="scale(0.015625)"/>
       <path id="DejaVuSans-68" d="M 3513 2113 
L 3513 0 
L 2938 0 
L 2938 2094 
Q 2938 2591 2744 2837 
Q 2550 3084 2163 3084 
Q 1697 3084 1428 2787 
Q 1159 2491 1159 1978 
L 1159 0 
L 581 0 
L 581 4863 
L 1159 4863 
L 1159 2956 
Q 1366 3272 1645 3428 
Q 1925 3584 2291 3584 
Q 2894 3584 3203 3211 
Q 3513 2838 3513 2113 
z
" transform="scale(0.015625)"/>
       <path id="DejaVuSans-6c" d="M 603 4863 
L 1178 4863 
L 1178 0 
L 603 0 
L 603 4863 
z
" transform="scale(0.015625)"/>
       <path id="DejaVuSans-69" d="M 603 3500 
L 1178 3500 
L 1178 0 
L 603 0 
L 603 3500 
z
M 603 4863 
L 1178 4863 
L 1178 4134 
L 603 4134 
L 603 4863 
z
" transform="scale(0.015625)"/>
       <path id="DejaVuSans-63" d="M 3122 3366 
L 3122 2828 
Q 2878 2963 2633 3030 
Q 2388 3097 2138 3097 
Q 1578 3097 1268 2742 
Q 959 2388 959 1747 
Q 959 1106 1268 751 
Q 1578 397 2138 397 
Q 2388 397 2633 464 
Q 2878 531 3122 666 
L 3122 134 
Q 2881 22 2623 -34 
Q 2366 -91 2075 -91 
Q 1284 -91 818 406 
Q 353 903 353 1747 
Q 353 2603 823 3093 
Q 1294 3584 2113 3584 
Q 2378 3584 2631 3529 
Q 2884 3475 3122 3366 
z
" transform="scale(0.015625)"/>
       <path id="DejaVuSans-6b" d="M 581 4863 
L 1159 4863 
L 1159 1991 
L 2875 3500 
L 3609 3500 
L 1753 1863 
L 3688 0 
L 2938 0 
L 1159 1709 
L 1159 0 
L 581 0 
L 581 4863 
z
" transform="scale(0.015625)"/>
       <path id="DejaVuSans-65" d="M 3597 1894 
L 3597 1613 
L 953 1613 
Q 991 1019 1311 708 
Q 1631 397 2203 397 
Q 2534 397 2845 478 
Q 3156 559 3463 722 
L 3463 178 
Q 3153 47 2828 -22 
Q 2503 -91 2169 -91 
Q 1331 -91 842 396 
Q 353 884 353 1716 
Q 353 2575 817 3079 
Q 1281 3584 2069 3584 
Q 2775 3584 3186 3129 
Q 3597 2675 3597 1894 
z
M 3022 2063 
Q 3016 2534 2758 2815 
Q 2500 3097 2075 3097 
Q 1594 3097 1305 2825 
Q 1016 2553 972 2059 
L 3022 2063 
z
" transform="scale(0.015625)"/>
      </defs>
      <use xlink:href="#DejaVuSans-c4"/>
      <use xlink:href="#DejaVuSans-68" transform="translate(68.408203 0)"/>
      <use xlink:href="#DejaVuSans-6e" transform="translate(131.787109 0)"/>
      <use xlink:href="#DejaVuSans-6c" transform="translate(195.166016 0)"/>
      <use xlink:href="#DejaVuSans-69" transform="translate(222.949219 0)"/>
      <use xlink:href="#DejaVuSans-63" transform="translate(250.732422 0)"/>
      <use xlink:href="#DejaVuSans-68" transform="translate(305.712891 0)"/>
      <use xlink:href="#DejaVuSans-6b" transform="translate(369.091797 0)"/>
      <use xlink:href="#DejaVuSans-65" transform="translate(423.376953 0)"/>
      <use xlink:href="#DejaVuSans-69" transform="translate(484.900391 0)"/>
      <use xlink:href="#DejaVuSans-74" transform="translate(512.683594 0)"/>
     </g>
    </g>
   </g>
   <g id="line2d_14">
    <path d="M 43.78125 242.439997 
L 108.64599 242.330645 
L 118.283037 242.088156 
L 124.584183 241.723391 
L 129.402706 241.239658 
L 133.479919 240.617821 
L 137.186475 239.816889 
L 140.15172 238.965554 
L 143.116966 237.88022 
L 145.711555 236.699429 
L 148.306145 235.263779 
L 150.530079 233.799399 
L 152.754013 232.090099 
L 154.977947 230.106892 
L 157.201881 227.81981 
L 159.425815 225.198399 
L 161.649748 222.212311 
L 163.873682 218.832007 
L 166.097616 215.029563 
L 168.32155 210.779558 
L 170.545484 206.060051 
L 172.769418 200.853602 
L 175.364008 194.148481 
L 177.958597 186.757348 
L 180.553187 178.687322 
L 183.518432 168.664177 
L 186.483677 157.849961 
L 189.819578 144.861024 
L 193.896791 128.076801 
L 207.240394 72.278211 
L 210.205639 61.229482 
L 212.800229 52.419809 
L 215.024163 45.639126 
L 216.877441 40.60654 
L 218.730719 36.19059 
L 220.213342 33.132684 
L 221.695965 30.519249 
L 223.178587 28.367963 
L 224.290554 27.066723 
L 225.402521 26.038774 
L 226.514488 25.288094 
L 227.626455 24.817598 
L 228.738422 24.629114 
L 229.850389 24.723376 
L 230.962356 25.100018 
L 232.074323 25.757574 
L 233.18629 26.69349 
L 234.298257 27.904139 
L 235.410224 29.384848 
L 236.892847 31.769234 
L 238.375469 34.607295 
L 239.858092 37.87992 
L 241.71137 42.548329 
L 243.564648 47.813524 
L 245.788582 54.844385 
L 248.383172 63.902666 
L 251.348417 75.175003 
L 255.054974 90.259025 
L 261.726776 118.64912 
L 267.28661 141.873586 
L 270.993167 156.447043 
L 274.329068 168.664177 
L 277.294313 178.687322 
L 279.888903 186.757348 
L 282.483492 194.148481 
L 285.078082 200.853602 
L 287.672671 206.880043 
L 289.896605 211.519954 
L 292.120539 215.693735 
L 294.344473 219.423978 
L 296.568407 222.736586 
L 298.792341 225.659812 
L 301.016275 228.223383 
L 303.240209 230.45771 
L 305.464143 232.393207 
L 307.688077 234.059706 
L 310.282666 235.702298 
L 312.877256 237.061096 
L 315.471846 238.176117 
L 318.437091 239.198513 
L 321.772992 240.084913 
L 325.479548 240.811074 
L 329.556761 241.372059 
L 334.375284 241.806012 
L 340.67643 242.131004 
L 349.20151 242.330645 
L 364.398392 242.425794 
L 414.06625 242.439997 
L 414.06625 242.439997 
" clip-path="url(#p08dcf7724f)" style="fill: none; stroke: #2c6fa6; stroke-width: 2.2; stroke-linecap: square"/>
   </g>
   <g id="line2d_15">
    <path d="M 43.78125 236.553113 
L 58.236821 235.546655 
L 70.468457 234.481728 
L 81.217471 233.331489 
L 90.854518 232.078189 
L 99.379598 230.745162 
L 106.792711 229.370142 
L 113.464513 227.919623 
L 119.765659 226.322489 
L 125.325494 224.690855 
L 130.514673 222.941636 
L 135.333197 221.084119 
L 139.781065 219.133527 
L 143.858277 217.111835 
L 147.935489 214.828851 
L 151.642046 212.489703 
L 154.977947 210.136278 
L 158.313848 207.512864 
L 161.649748 204.580138 
L 164.614994 201.676712 
L 167.580239 198.455634 
L 170.545484 194.874442 
L 173.140074 191.407623 
L 175.734663 187.591711 
L 178.329253 183.386279 
L 180.923843 178.746859 
L 183.518432 173.625117 
L 186.113022 167.969419 
L 188.707611 161.72598 
L 191.302201 154.840881 
L 193.896791 147.263338 
L 196.49138 138.950688 
L 199.08597 129.875665 
L 201.680559 120.036518 
L 204.645805 107.906143 
L 207.981705 93.313541 
L 217.618753 50.401431 
L 219.842686 41.986306 
L 221.695965 35.95417 
L 223.178587 31.922825 
L 224.290554 29.427565 
L 225.402521 27.425116 
L 226.514488 25.944979 
L 227.2558 25.259751 
L 227.997111 24.821434 
L 228.738422 24.633042 
L 229.479733 24.695876 
L 230.221045 25.009501 
L 230.962356 25.571755 
L 231.703667 26.378786 
L 232.815634 28.035883 
L 233.927601 30.206205 
L 235.039568 32.858092 
L 236.522191 37.077778 
L 238.004814 41.986306 
L 239.858092 48.924365 
L 242.082026 58.138481 
L 245.417927 73.030175 
L 252.460384 104.740009 
L 255.796285 118.570105 
L 258.76153 129.875665 
L 261.35612 138.950688 
L 263.950709 147.263338 
L 266.545299 154.840881 
L 269.139889 161.72598 
L 271.734478 167.969419 
L 274.329068 173.625117 
L 276.923657 178.746859 
L 279.518247 183.386279 
L 282.112837 187.591711 
L 284.707426 191.407623 
L 287.672671 195.343378 
L 290.637917 198.877037 
L 293.603162 202.056202 
L 296.568407 204.922635 
L 299.904308 207.818857 
L 303.240209 210.41044 
L 306.57611 212.736044 
L 310.282666 215.048294 
L 313.989223 217.111835 
L 318.066435 219.133527 
L 322.514303 221.084119 
L 327.332827 222.941636 
L 332.522006 224.690855 
L 338.081841 226.322489 
L 344.012331 227.832226 
L 350.684133 229.295258 
L 358.097246 230.681579 
L 366.25167 231.97141 
L 375.147406 233.153757 
L 385.525765 234.299334 
L 397.01609 235.339199 
L 410.359693 236.31696 
L 414.06625 236.553113 
L 414.06625 236.553113 
" clip-path="url(#p08dcf7724f)" style="fill: none; stroke: #e08a1e; stroke-width: 2.2; stroke-linecap: square"/>
   </g>
   <g id="patch_3">
    <path d="M 43.78125 242.44 
L 43.78125 7.2 
" style="fill: none; stroke: #000000; stroke-width: 0.8; stroke-linejoin: miter; stroke-linecap: square"/>
   </g>
   <g id="patch_4">
    <path d="M 43.78125 242.44 
L 414.06625 242.44 
" style="fill: none; stroke: #000000; stroke-width: 0.8; stroke-linejoin: miter; stroke-linecap: square"/>
   </g>
   <g id="legend_1">
    <g id="line2d_16">
     <path d="M 330.1725 20.298438 
L 340.1725 20.298438 
L 350.1725 20.298438 
" style="fill: none; stroke: #2c6fa6; stroke-width: 2.2; stroke-linecap: square"/>
    </g>
    <g id="text_16">
     <!-- Gauss -->
     <g transform="translate(358.1725 23.798438) scale(0.1 -0.1)">
      <defs>
       <path id="DejaVuSans-47" d="M 3809 666 
L 3809 1919 
L 2778 1919 
L 2778 2438 
L 4434 2438 
L 4434 434 
Q 4069 175 3628 42 
Q 3188 -91 2688 -91 
Q 1594 -91 976 548 
Q 359 1188 359 2328 
Q 359 3472 976 4111 
Q 1594 4750 2688 4750 
Q 3144 4750 3555 4637 
Q 3966 4525 4313 4306 
L 4313 3634 
Q 3963 3931 3569 4081 
Q 3175 4231 2741 4231 
Q 1884 4231 1454 3753 
Q 1025 3275 1025 2328 
Q 1025 1384 1454 906 
Q 1884 428 2741 428 
Q 3075 428 3337 486 
Q 3600 544 3809 666 
z
" transform="scale(0.015625)"/>
       <path id="DejaVuSans-75" d="M 544 1381 
L 544 3500 
L 1119 3500 
L 1119 1403 
Q 1119 906 1312 657 
Q 1506 409 1894 409 
Q 2359 409 2629 706 
Q 2900 1003 2900 1516 
L 2900 3500 
L 3475 3500 
L 3475 0 
L 2900 0 
L 2900 538 
Q 2691 219 2414 64 
Q 2138 -91 1772 -91 
Q 1169 -91 856 284 
Q 544 659 544 1381 
z
M 1991 3584 
L 1991 3584 
z
" transform="scale(0.015625)"/>
      </defs>
      <use xlink:href="#DejaVuSans-47"/>
      <use xlink:href="#DejaVuSans-61" transform="translate(77.490234 0)"/>
      <use xlink:href="#DejaVuSans-75" transform="translate(138.769531 0)"/>
      <use xlink:href="#DejaVuSans-73" transform="translate(202.148438 0)"/>
      <use xlink:href="#DejaVuSans-73" transform="translate(254.248047 0)"/>
     </g>
    </g>
    <g id="line2d_17">
     <path d="M 330.1725 34.976563 
L 340.1725 34.976563 
L 350.1725 34.976563 
" style="fill: none; stroke: #e08a1e; stroke-width: 2.2; stroke-linecap: square"/>
    </g>
    <g id="text_17">
     <!-- Student-t -->
     <g transform="translate(358.1725 38.476563) scale(0.1 -0.1)">
      <defs>
       <path id="DejaVuSans-53" d="M 3425 4513 
L 3425 3897 
Q 3066 4069 2747 4153 
Q 2428 4238 2131 4238 
Q 1616 4238 1336 4038 
Q 1056 3838 1056 3469 
Q 1056 3159 1242 3001 
Q 1428 2844 1947 2747 
L 2328 2669 
Q 3034 2534 3370 2195 
Q 3706 1856 3706 1288 
Q 3706 609 3251 259 
Q 2797 -91 1919 -91 
Q 1588 -91 1214 -16 
Q 841 59 441 206 
L 441 856 
Q 825 641 1194 531 
Q 1563 422 1919 422 
Q 2459 422 2753 634 
Q 3047 847 3047 1241 
Q 3047 1584 2836 1778 
Q 2625 1972 2144 2069 
L 1759 2144 
Q 1053 2284 737 2584 
Q 422 2884 422 3419 
Q 422 4038 858 4394 
Q 1294 4750 2059 4750 
Q 2388 4750 2728 4690 
Q 3069 4631 3425 4513 
z
" transform="scale(0.015625)"/>
       <path id="DejaVuSans-2d" d="M 313 2009 
L 1997 2009 
L 1997 1497 
L 313 1497 
L 313 2009 
z
" transform="scale(0.015625)"/>
      </defs>
      <use xlink:href="#DejaVuSans-53"/>
      <use xlink:href="#DejaVuSans-74" transform="translate(63.476562 0)"/>
      <use xlink:href="#DejaVuSans-75" transform="translate(102.685547 0)"/>
      <use xlink:href="#DejaVuSans-64" transform="translate(166.064453 0)"/>
      <use xlink:href="#DejaVuSans-65" transform="translate(229.541016 0)"/>
      <use xlink:href="#DejaVuSans-6e" transform="translate(291.064453 0)"/>
      <use xlink:href="#DejaVuSans-74" transform="translate(354.443359 0)"/>
      <use xlink:href="#DejaVuSans-2d" transform="translate(393.652344 0)"/>
      <use xlink:href="#DejaVuSans-74" transform="translate(429.736328 0)"/>
     </g>
    </g>
   </g>
  </g>
 </g>
 <defs>
  <clipPath id="p08dcf7724f">
   <rect x="43.78125" y="7.2" width="370.285" height="235.24"/>
  </clipPath>
 </defs>
</svg>
